<?xml version="1.0" encoding="utf-8" standalone="no"?>
<!DOCTYPE svg PUBLIC "-//W3C//DTD SVG 1.1//EN"
  "http://www.w3.org/Graphics/SVG/1.1/DTD/svg11.dtd">
<svg xmlns:xlink="http://www.w3.org/1999/xlink" width="216.028641pt" height="160.204766pt" viewBox="0 0 216.028641 160.204766" xmlns="http://www.w3.org/2000/svg" version="1.1">
 <metadata>
  <rdf:RDF xmlns:dc="http://purl.org/dc/elements/1.1/" xmlns:cc="http://creativecommons.org/ns#" xmlns:rdf="http://www.w3.org/1999/02/22-rdf-syntax-ns#">
   <cc:Work>
    <dc:type rdf:resource="http://purl.org/dc/dcmitype/StillImage"/>
    <dc:date>2024-08-21T17:25:21.953626</dc:date>
    <dc:format>image/svg+xml</dc:format>
    <dc:creator>
     <cc:Agent>
      <dc:title>Matplotlib v3.9.0, https://matplotlib.org/</dc:title>
     </cc:Agent>
    </dc:creator>
   </cc:Work>
  </rdf:RDF>
 </metadata>
 <defs>
  <style type="text/css">*{stroke-linejoin: round; stroke-linecap: butt}</style>
 </defs>
 <g id="figure_1">
  <g id="patch_1">
   <path d="M 0 160.204766 
L 216.028641 160.204766 
L 216.028641 0 
L 0 0 
z
" style="fill: #ffffff"/>
  </g>
  <g id="axes_1">
   <g id="patch_2">
    <path d="M 37.146719 118.08 
L 204.546719 118.08 
L 204.546719 7.2 
L 37.146719 7.2 
z
" style="fill: #ffffff"/>
   </g>
   <g id="matplotlib.axis_1">
    <g id="xtick_1">
     <g id="line2d_1">
      <defs>
       <path id="m68ffca41f0" d="M 0 3 
L 0 -3 
" style="stroke: #262626; stroke-width: 0.5"/>
      </defs>
      <g>
       <use xlink:href="#m68ffca41f0" x="37.146719" y="118.08" style="fill: #262626; stroke: #262626; stroke-width: 0.5"/>
      </g>
     </g>
     <g id="text_1">
      <!-- 0 -->
      <g style="fill: #262626" transform="translate(35.005758 133.591516) scale(0.077 -0.077)">
       <defs>
        <path id="ArialMT-30" d="M 266 2259 
Q 266 3072 433 3567 
Q 600 4063 929 4331 
Q 1259 4600 1759 4600 
Q 2128 4600 2406 4451 
Q 2684 4303 2865 4023 
Q 3047 3744 3150 3342 
Q 3253 2941 3253 2259 
Q 3253 1453 3087 958 
Q 2922 463 2592 192 
Q 2263 -78 1759 -78 
Q 1097 -78 719 397 
Q 266 969 266 2259 
z
M 844 2259 
Q 844 1131 1108 757 
Q 1372 384 1759 384 
Q 2147 384 2411 759 
Q 2675 1134 2675 2259 
Q 2675 3391 2411 3762 
Q 2147 4134 1753 4134 
Q 1366 4134 1134 3806 
Q 844 3388 844 2259 
z
" transform="scale(0.015625)"/>
       </defs>
       <use xlink:href="#ArialMT-30"/>
      </g>
     </g>
    </g>
    <g id="xtick_2">
     <g id="line2d_2">
      <g>
       <use xlink:href="#m68ffca41f0" x="65.046719" y="118.08" style="fill: #262626; stroke: #262626; stroke-width: 0.5"/>
      </g>
     </g>
     <g id="text_2">
      <!-- 12 -->
      <g style="fill: #262626" transform="translate(60.764797 133.591516) scale(0.077 -0.077)">
       <defs>
        <path id="ArialMT-31" d="M 2384 0 
L 1822 0 
L 1822 3584 
Q 1619 3391 1289 3197 
Q 959 3003 697 2906 
L 697 3450 
Q 1169 3672 1522 3987 
Q 1875 4303 2022 4600 
L 2384 4600 
L 2384 0 
z
" transform="scale(0.015625)"/>
        <path id="ArialMT-32" d="M 3222 541 
L 3222 0 
L 194 0 
Q 188 203 259 391 
Q 375 700 629 1000 
Q 884 1300 1366 1694 
Q 2113 2306 2375 2664 
Q 2638 3022 2638 3341 
Q 2638 3675 2398 3904 
Q 2159 4134 1775 4134 
Q 1369 4134 1125 3890 
Q 881 3647 878 3216 
L 300 3275 
Q 359 3922 746 4261 
Q 1134 4600 1788 4600 
Q 2447 4600 2831 4234 
Q 3216 3869 3216 3328 
Q 3216 3053 3103 2787 
Q 2991 2522 2730 2228 
Q 2469 1934 1863 1422 
Q 1356 997 1212 845 
Q 1069 694 975 541 
L 3222 541 
z
" transform="scale(0.015625)"/>
       </defs>
       <use xlink:href="#ArialMT-31"/>
       <use xlink:href="#ArialMT-32" x="55.615234"/>
      </g>
     </g>
    </g>
    <g id="xtick_3">
     <g id="line2d_3">
      <g>
       <use xlink:href="#m68ffca41f0" x="92.946719" y="118.08" style="fill: #262626; stroke: #262626; stroke-width: 0.5"/>
      </g>
     </g>
     <g id="text_3">
      <!-- 24 -->
      <g style="fill: #262626" transform="translate(88.664797 133.591516) scale(0.077 -0.077)">
       <defs>
        <path id="ArialMT-34" d="M 2069 0 
L 2069 1097 
L 81 1097 
L 81 1613 
L 2172 4581 
L 2631 4581 
L 2631 1613 
L 3250 1613 
L 3250 1097 
L 2631 1097 
L 2631 0 
L 2069 0 
z
M 2069 1613 
L 2069 3678 
L 634 1613 
L 2069 1613 
z
" transform="scale(0.015625)"/>
       </defs>
       <use xlink:href="#ArialMT-32"/>
       <use xlink:href="#ArialMT-34" x="55.615234"/>
      </g>
     </g>
    </g>
    <g id="xtick_4">
     <g id="line2d_4">
      <g>
       <use xlink:href="#m68ffca41f0" x="120.846719" y="118.08" style="fill: #262626; stroke: #262626; stroke-width: 0.5"/>
      </g>
     </g>
     <g id="text_4">
      <!-- 36 -->
      <g style="fill: #262626" transform="translate(116.564797 133.591516) scale(0.077 -0.077)">
       <defs>
        <path id="ArialMT-33" d="M 269 1209 
L 831 1284 
Q 928 806 1161 595 
Q 1394 384 1728 384 
Q 2125 384 2398 659 
Q 2672 934 2672 1341 
Q 2672 1728 2419 1979 
Q 2166 2231 1775 2231 
Q 1616 2231 1378 2169 
L 1441 2663 
Q 1497 2656 1531 2656 
Q 1891 2656 2178 2843 
Q 2466 3031 2466 3422 
Q 2466 3731 2256 3934 
Q 2047 4138 1716 4138 
Q 1388 4138 1169 3931 
Q 950 3725 888 3313 
L 325 3413 
Q 428 3978 793 4289 
Q 1159 4600 1703 4600 
Q 2078 4600 2393 4439 
Q 2709 4278 2876 4000 
Q 3044 3722 3044 3409 
Q 3044 3113 2884 2869 
Q 2725 2625 2413 2481 
Q 2819 2388 3044 2092 
Q 3269 1797 3269 1353 
Q 3269 753 2831 336 
Q 2394 -81 1725 -81 
Q 1122 -81 723 278 
Q 325 638 269 1209 
z
" transform="scale(0.015625)"/>
        <path id="ArialMT-36" d="M 3184 3459 
L 2625 3416 
Q 2550 3747 2413 3897 
Q 2184 4138 1850 4138 
Q 1581 4138 1378 3988 
Q 1113 3794 959 3422 
Q 806 3050 800 2363 
Q 1003 2672 1297 2822 
Q 1591 2972 1913 2972 
Q 2475 2972 2870 2558 
Q 3266 2144 3266 1488 
Q 3266 1056 3080 686 
Q 2894 316 2569 119 
Q 2244 -78 1831 -78 
Q 1128 -78 684 439 
Q 241 956 241 2144 
Q 241 3472 731 4075 
Q 1159 4600 1884 4600 
Q 2425 4600 2770 4297 
Q 3116 3994 3184 3459 
z
M 888 1484 
Q 888 1194 1011 928 
Q 1134 663 1356 523 
Q 1578 384 1822 384 
Q 2178 384 2434 671 
Q 2691 959 2691 1453 
Q 2691 1928 2437 2201 
Q 2184 2475 1800 2475 
Q 1419 2475 1153 2201 
Q 888 1928 888 1484 
z
" transform="scale(0.015625)"/>
       </defs>
       <use xlink:href="#ArialMT-33"/>
       <use xlink:href="#ArialMT-36" x="55.615234"/>
      </g>
     </g>
    </g>
    <g id="xtick_5">
     <g id="line2d_5">
      <g>
       <use xlink:href="#m68ffca41f0" x="148.746719" y="118.08" style="fill: #262626; stroke: #262626; stroke-width: 0.5"/>
      </g>
     </g>
     <g id="text_5">
      <!-- 48 -->
      <g style="fill: #262626" transform="translate(144.464797 133.591516) scale(0.077 -0.077)">
       <defs>
        <path id="ArialMT-38" d="M 1131 2484 
Q 781 2613 612 2850 
Q 444 3088 444 3419 
Q 444 3919 803 4259 
Q 1163 4600 1759 4600 
Q 2359 4600 2725 4251 
Q 3091 3903 3091 3403 
Q 3091 3084 2923 2848 
Q 2756 2613 2416 2484 
Q 2838 2347 3058 2040 
Q 3278 1734 3278 1309 
Q 3278 722 2862 322 
Q 2447 -78 1769 -78 
Q 1091 -78 675 323 
Q 259 725 259 1325 
Q 259 1772 486 2073 
Q 713 2375 1131 2484 
z
M 1019 3438 
Q 1019 3113 1228 2906 
Q 1438 2700 1772 2700 
Q 2097 2700 2305 2904 
Q 2513 3109 2513 3406 
Q 2513 3716 2298 3927 
Q 2084 4138 1766 4138 
Q 1444 4138 1231 3931 
Q 1019 3725 1019 3438 
z
M 838 1322 
Q 838 1081 952 856 
Q 1066 631 1291 507 
Q 1516 384 1775 384 
Q 2178 384 2440 643 
Q 2703 903 2703 1303 
Q 2703 1709 2433 1975 
Q 2163 2241 1756 2241 
Q 1359 2241 1098 1978 
Q 838 1716 838 1322 
z
" transform="scale(0.015625)"/>
       </defs>
       <use xlink:href="#ArialMT-34"/>
       <use xlink:href="#ArialMT-38" x="55.615234"/>
      </g>
     </g>
    </g>
    <g id="xtick_6">
     <g id="line2d_6">
      <g>
       <use xlink:href="#m68ffca41f0" x="176.646719" y="118.08" style="fill: #262626; stroke: #262626; stroke-width: 0.5"/>
      </g>
     </g>
     <g id="text_6">
      <!-- 60 -->
      <g style="fill: #262626" transform="translate(172.364797 133.591516) scale(0.077 -0.077)">
       <use xlink:href="#ArialMT-36"/>
       <use xlink:href="#ArialMT-30" x="55.615234"/>
      </g>
     </g>
    </g>
    <g id="xtick_7">
     <g id="line2d_7">
      <g>
       <use xlink:href="#m68ffca41f0" x="204.546719" y="118.08" style="fill: #262626; stroke: #262626; stroke-width: 0.5"/>
      </g>
     </g>
     <g id="text_7">
      <!-- 72 -->
      <g style="fill: #262626" transform="translate(200.264797 133.591516) scale(0.077 -0.077)">
       <defs>
        <path id="ArialMT-37" d="M 303 3981 
L 303 4522 
L 3269 4522 
L 3269 4084 
Q 2831 3619 2401 2847 
Q 1972 2075 1738 1259 
Q 1569 684 1522 0 
L 944 0 
Q 953 541 1156 1306 
Q 1359 2072 1739 2783 
Q 2119 3494 2547 3981 
L 303 3981 
z
" transform="scale(0.015625)"/>
       </defs>
       <use xlink:href="#ArialMT-37"/>
       <use xlink:href="#ArialMT-32" x="55.615234"/>
      </g>
     </g>
    </g>
    <g id="text_8">
     <!-- Time (arb. unit) -->
     <g transform="translate(92.533469 151.236828) scale(0.084 -0.084)">
      <defs>
       <path id="ArialMT-54" d="M 1659 0 
L 1659 4041 
L 150 4041 
L 150 4581 
L 3781 4581 
L 3781 4041 
L 2266 4041 
L 2266 0 
L 1659 0 
z
" transform="scale(0.015625)"/>
       <path id="ArialMT-69" d="M 425 3934 
L 425 4581 
L 988 4581 
L 988 3934 
L 425 3934 
z
M 425 0 
L 425 3319 
L 988 3319 
L 988 0 
L 425 0 
z
" transform="scale(0.015625)"/>
       <path id="ArialMT-6d" d="M 422 0 
L 422 3319 
L 925 3319 
L 925 2853 
Q 1081 3097 1340 3245 
Q 1600 3394 1931 3394 
Q 2300 3394 2536 3241 
Q 2772 3088 2869 2813 
Q 3263 3394 3894 3394 
Q 4388 3394 4653 3120 
Q 4919 2847 4919 2278 
L 4919 0 
L 4359 0 
L 4359 2091 
Q 4359 2428 4304 2576 
Q 4250 2725 4106 2815 
Q 3963 2906 3769 2906 
Q 3419 2906 3187 2673 
Q 2956 2441 2956 1928 
L 2956 0 
L 2394 0 
L 2394 2156 
Q 2394 2531 2256 2718 
Q 2119 2906 1806 2906 
Q 1569 2906 1367 2781 
Q 1166 2656 1075 2415 
Q 984 2175 984 1722 
L 984 0 
L 422 0 
z
" transform="scale(0.015625)"/>
       <path id="ArialMT-65" d="M 2694 1069 
L 3275 997 
Q 3138 488 2766 206 
Q 2394 -75 1816 -75 
Q 1088 -75 661 373 
Q 234 822 234 1631 
Q 234 2469 665 2931 
Q 1097 3394 1784 3394 
Q 2450 3394 2872 2941 
Q 3294 2488 3294 1666 
Q 3294 1616 3291 1516 
L 816 1516 
Q 847 969 1125 678 
Q 1403 388 1819 388 
Q 2128 388 2347 550 
Q 2566 713 2694 1069 
z
M 847 1978 
L 2700 1978 
Q 2663 2397 2488 2606 
Q 2219 2931 1791 2931 
Q 1403 2931 1139 2672 
Q 875 2413 847 1978 
z
" transform="scale(0.015625)"/>
       <path id="ArialMT-20" transform="scale(0.015625)"/>
       <path id="ArialMT-28" d="M 1497 -1347 
Q 1031 -759 709 28 
Q 388 816 388 1659 
Q 388 2403 628 3084 
Q 909 3875 1497 4659 
L 1900 4659 
Q 1522 4009 1400 3731 
Q 1209 3300 1100 2831 
Q 966 2247 966 1656 
Q 966 153 1900 -1347 
L 1497 -1347 
z
" transform="scale(0.015625)"/>
       <path id="ArialMT-61" d="M 2588 409 
Q 2275 144 1986 34 
Q 1697 -75 1366 -75 
Q 819 -75 525 192 
Q 231 459 231 875 
Q 231 1119 342 1320 
Q 453 1522 633 1644 
Q 813 1766 1038 1828 
Q 1203 1872 1538 1913 
Q 2219 1994 2541 2106 
Q 2544 2222 2544 2253 
Q 2544 2597 2384 2738 
Q 2169 2928 1744 2928 
Q 1347 2928 1158 2789 
Q 969 2650 878 2297 
L 328 2372 
Q 403 2725 575 2942 
Q 747 3159 1072 3276 
Q 1397 3394 1825 3394 
Q 2250 3394 2515 3294 
Q 2781 3194 2906 3042 
Q 3031 2891 3081 2659 
Q 3109 2516 3109 2141 
L 3109 1391 
Q 3109 606 3145 398 
Q 3181 191 3288 0 
L 2700 0 
Q 2613 175 2588 409 
z
M 2541 1666 
Q 2234 1541 1622 1453 
Q 1275 1403 1131 1340 
Q 988 1278 909 1158 
Q 831 1038 831 891 
Q 831 666 1001 516 
Q 1172 366 1500 366 
Q 1825 366 2078 508 
Q 2331 650 2450 897 
Q 2541 1088 2541 1459 
L 2541 1666 
z
" transform="scale(0.015625)"/>
       <path id="ArialMT-72" d="M 416 0 
L 416 3319 
L 922 3319 
L 922 2816 
Q 1116 3169 1280 3281 
Q 1444 3394 1641 3394 
Q 1925 3394 2219 3213 
L 2025 2691 
Q 1819 2813 1613 2813 
Q 1428 2813 1281 2702 
Q 1134 2591 1072 2394 
Q 978 2094 978 1738 
L 978 0 
L 416 0 
z
" transform="scale(0.015625)"/>
       <path id="ArialMT-62" d="M 941 0 
L 419 0 
L 419 4581 
L 981 4581 
L 981 2947 
Q 1338 3394 1891 3394 
Q 2197 3394 2470 3270 
Q 2744 3147 2920 2923 
Q 3097 2700 3197 2384 
Q 3297 2069 3297 1709 
Q 3297 856 2875 390 
Q 2453 -75 1863 -75 
Q 1275 -75 941 416 
L 941 0 
z
M 934 1684 
Q 934 1088 1097 822 
Q 1363 388 1816 388 
Q 2184 388 2453 708 
Q 2722 1028 2722 1663 
Q 2722 2313 2464 2622 
Q 2206 2931 1841 2931 
Q 1472 2931 1203 2611 
Q 934 2291 934 1684 
z
" transform="scale(0.015625)"/>
       <path id="ArialMT-2e" d="M 581 0 
L 581 641 
L 1222 641 
L 1222 0 
L 581 0 
z
" transform="scale(0.015625)"/>
       <path id="ArialMT-75" d="M 2597 0 
L 2597 488 
Q 2209 -75 1544 -75 
Q 1250 -75 995 37 
Q 741 150 617 320 
Q 494 491 444 738 
Q 409 903 409 1263 
L 409 3319 
L 972 3319 
L 972 1478 
Q 972 1038 1006 884 
Q 1059 663 1231 536 
Q 1403 409 1656 409 
Q 1909 409 2131 539 
Q 2353 669 2445 892 
Q 2538 1116 2538 1541 
L 2538 3319 
L 3100 3319 
L 3100 0 
L 2597 0 
z
" transform="scale(0.015625)"/>
       <path id="ArialMT-6e" d="M 422 0 
L 422 3319 
L 928 3319 
L 928 2847 
Q 1294 3394 1984 3394 
Q 2284 3394 2536 3286 
Q 2788 3178 2913 3003 
Q 3038 2828 3088 2588 
Q 3119 2431 3119 2041 
L 3119 0 
L 2556 0 
L 2556 2019 
Q 2556 2363 2490 2533 
Q 2425 2703 2258 2804 
Q 2091 2906 1866 2906 
Q 1506 2906 1245 2678 
Q 984 2450 984 1813 
L 984 0 
L 422 0 
z
" transform="scale(0.015625)"/>
       <path id="ArialMT-74" d="M 1650 503 
L 1731 6 
Q 1494 -44 1306 -44 
Q 1000 -44 831 53 
Q 663 150 594 308 
Q 525 466 525 972 
L 525 2881 
L 113 2881 
L 113 3319 
L 525 3319 
L 525 4141 
L 1084 4478 
L 1084 3319 
L 1650 3319 
L 1650 2881 
L 1084 2881 
L 1084 941 
Q 1084 700 1114 631 
Q 1144 563 1211 522 
Q 1278 481 1403 481 
Q 1497 481 1650 503 
z
" transform="scale(0.015625)"/>
       <path id="ArialMT-29" d="M 791 -1347 
L 388 -1347 
Q 1322 153 1322 1656 
Q 1322 2244 1188 2822 
Q 1081 3291 891 3722 
Q 769 4003 388 4659 
L 791 4659 
Q 1378 3875 1659 3084 
Q 1900 2403 1900 1659 
Q 1900 816 1576 28 
Q 1253 -759 791 -1347 
z
" transform="scale(0.015625)"/>
      </defs>
      <use xlink:href="#ArialMT-54"/>
      <use xlink:href="#ArialMT-69" x="57.333984"/>
      <use xlink:href="#ArialMT-6d" x="79.550781"/>
      <use xlink:href="#ArialMT-65" x="162.851562"/>
      <use xlink:href="#ArialMT-20" x="218.466797"/>
      <use xlink:href="#ArialMT-28" x="246.25"/>
      <use xlink:href="#ArialMT-61" x="279.550781"/>
      <use xlink:href="#ArialMT-72" x="335.166016"/>
      <use xlink:href="#ArialMT-62" x="368.466797"/>
      <use xlink:href="#ArialMT-2e" x="424.082031"/>
      <use xlink:href="#ArialMT-20" x="451.865234"/>
      <use xlink:href="#ArialMT-75" x="479.648438"/>
      <use xlink:href="#ArialMT-6e" x="535.263672"/>
      <use xlink:href="#ArialMT-69" x="590.878906"/>
      <use xlink:href="#ArialMT-74" x="613.095703"/>
      <use xlink:href="#ArialMT-29" x="640.878906"/>
     </g>
    </g>
   </g>
   <g id="matplotlib.axis_2">
    <g id="ytick_1">
     <g id="line2d_8">
      <defs>
       <path id="m16a61220d4" d="M 0 0 
L 4 0 
" style="stroke: #262626; stroke-width: 0.5"/>
      </defs>
      <g>
       <use xlink:href="#m16a61220d4" x="37.146719" y="118.08" style="fill: #262626; stroke: #262626; stroke-width: 0.5"/>
      </g>
     </g>
     <g id="text_9">
      <!-- 0 -->
      <g style="fill: #262626" transform="translate(29.364797 120.835758) scale(0.077 -0.077)">
       <use xlink:href="#ArialMT-30"/>
      </g>
     </g>
    </g>
    <g id="ytick_2">
     <g id="line2d_9">
      <g>
       <use xlink:href="#m16a61220d4" x="37.146719" y="96.96" style="fill: #262626; stroke: #262626; stroke-width: 0.5"/>
      </g>
     </g>
     <g id="text_10">
      <!-- 2 -->
      <g style="fill: #262626" transform="translate(29.364797 99.715758) scale(0.077 -0.077)">
       <use xlink:href="#ArialMT-32"/>
      </g>
     </g>
    </g>
    <g id="ytick_3">
     <g id="line2d_10">
      <g>
       <use xlink:href="#m16a61220d4" x="37.146719" y="75.84" style="fill: #262626; stroke: #262626; stroke-width: 0.5"/>
      </g>
     </g>
     <g id="text_11">
      <!-- 4 -->
      <g style="fill: #262626" transform="translate(29.364797 78.595758) scale(0.077 -0.077)">
       <use xlink:href="#ArialMT-34"/>
      </g>
     </g>
    </g>
    <g id="ytick_4">
     <g id="line2d_11">
      <g>
       <use xlink:href="#m16a61220d4" x="37.146719" y="54.72" style="fill: #262626; stroke: #262626; stroke-width: 0.5"/>
      </g>
     </g>
     <g id="text_12">
      <!-- 6 -->
      <g style="fill: #262626" transform="translate(29.364797 57.475758) scale(0.077 -0.077)">
       <use xlink:href="#ArialMT-36"/>
      </g>
     </g>
    </g>
    <g id="ytick_5">
     <g id="line2d_12">
      <g>
       <use xlink:href="#m16a61220d4" x="37.146719" y="33.6" style="fill: #262626; stroke: #262626; stroke-width: 0.5"/>
      </g>
     </g>
     <g id="text_13">
      <!-- 8 -->
      <g style="fill: #262626" transform="translate(29.364797 36.355758) scale(0.077 -0.077)">
       <use xlink:href="#ArialMT-38"/>
      </g>
     </g>
    </g>
    <g id="ytick_6">
     <g id="line2d_13">
      <g>
       <use xlink:href="#m16a61220d4" x="37.146719" y="12.48" style="fill: #262626; stroke: #262626; stroke-width: 0.5"/>
      </g>
     </g>
     <g id="text_14">
      <!-- 10 -->
      <g style="fill: #262626" transform="translate(25.082875 15.235758) scale(0.077 -0.077)">
       <use xlink:href="#ArialMT-31"/>
       <use xlink:href="#ArialMT-30" x="55.615234"/>
      </g>
     </g>
    </g>
    <g id="text_15">
     <!-- Titer (arb. unit) -->
     <g transform="translate(13.314938 90.020062) rotate(-90) scale(0.084 -0.084)">
      <use xlink:href="#ArialMT-54"/>
      <use xlink:href="#ArialMT-69" x="57.333984"/>
      <use xlink:href="#ArialMT-74" x="79.550781"/>
      <use xlink:href="#ArialMT-65" x="107.333984"/>
      <use xlink:href="#ArialMT-72" x="162.949219"/>
      <use xlink:href="#ArialMT-20" x="196.25"/>
      <use xlink:href="#ArialMT-28" x="224.033203"/>
      <use xlink:href="#ArialMT-61" x="257.333984"/>
      <use xlink:href="#ArialMT-72" x="312.949219"/>
      <use xlink:href="#ArialMT-62" x="346.25"/>
      <use xlink:href="#ArialMT-2e" x="401.865234"/>
      <use xlink:href="#ArialMT-20" x="429.648438"/>
      <use xlink:href="#ArialMT-75" x="457.431641"/>
      <use xlink:href="#ArialMT-6e" x="513.046875"/>
      <use xlink:href="#ArialMT-69" x="568.662109"/>
      <use xlink:href="#ArialMT-74" x="590.878906"/>
      <use xlink:href="#ArialMT-29" x="618.662109"/>
     </g>
    </g>
   </g>
   <g id="line2d_14">
    <path d="M 37.146719 12.48 
L 38.837628 52.752844 
L 40.528537 76.96653 
L 42.219446 91.276865 
L 43.910355 99.754448 
L 45.601264 104.925511 
L 47.292173 108.235247 
L 48.983082 110.472481 
L 50.673991 112.062997 
L 52.364901 113.240654 
L 54.05581 114.139012 
L 55.746719 114.838574 
L 57.437628 115.390916 
L 59.128537 115.831095 
L 60.819446 116.184177 
L 62.510355 116.468797 
L 64.201264 116.699188 
L 65.892173 116.886421 
L 67.583082 117.039201 
L 69.273991 117.16442 
L 70.964901 117.267557 
L 72.65581 117.352975 
L 74.346719 117.424154 
L 76.037628 117.48387 
L 77.728537 117.534342 
L 79.419446 117.57734 
L 81.110355 117.614278 
L 82.801264 117.646288 
L 84.492173 117.674273 
L 86.183082 117.698956 
L 87.873991 117.720919 
L 89.564901 117.740624 
L 91.25581 117.758447 
L 92.946719 117.774687 
L 94.637628 117.789586 
L 96.328537 117.80334 
L 98.019446 117.816108 
L 99.710355 117.828019 
L 101.401264 117.83918 
L 103.092173 117.849675 
L 104.783082 117.859578 
L 106.473991 117.868946 
L 108.164901 117.877831 
L 109.85581 117.886274 
L 111.546719 117.894311 
L 113.237628 117.901971 
L 114.928537 117.909281 
L 116.619446 117.916265 
L 118.310355 117.922941 
L 120.001264 117.929329 
L 121.692173 117.935444 
L 123.383082 117.9413 
L 125.073991 117.946911 
L 126.764901 117.952289 
L 128.45581 117.957445 
L 130.146719 117.962388 
L 131.837628 117.967129 
L 133.528537 117.971677 
L 135.219446 117.97604 
L 136.910355 117.980225 
L 138.601264 117.984241 
L 140.292173 117.988095 
L 141.983082 117.991793 
L 143.673991 117.995342 
L 145.364901 117.998748 
L 147.05581 118.002016 
L 148.746719 118.005153 
L 150.437628 118.008164 
L 152.128537 118.011053 
L 153.819446 118.013827 
L 155.510355 118.016489 
L 157.201264 118.019043 
L 158.892173 118.021495 
L 160.583082 118.023849 
L 162.273991 118.026108 
L 163.964901 118.028276 
L 165.65581 118.030357 
L 167.346719 118.032354 
L 169.037628 118.034271 
L 170.728537 118.036111 
L 172.419446 118.037877 
L 174.110355 118.039572 
L 175.801264 118.041199 
L 177.492173 118.04276 
L 179.183082 118.044259 
L 180.873991 118.045697 
L 182.564901 118.047077 
L 184.25581 118.048402 
L 185.946719 118.049674 
L 187.637628 118.050895 
L 189.328537 118.052066 
L 191.019446 118.05319 
L 192.710355 118.054269 
L 194.401264 118.055305 
L 196.092173 118.056299 
L 197.783082 118.057253 
L 199.473991 118.058169 
L 201.164901 118.059048 
L 202.85581 118.059891 
L 204.546719 118.060701 
" clip-path="url(#p7dff1aaabd)" style="fill: none; stroke-dasharray: 1.5,2.475; stroke-dashoffset: 0; stroke: #648fff; stroke-width: 1.5"/>
   </g>
   <g id="line2d_15">
    <path d="M 37.146719 118.08 
L 38.837628 96.35027 
L 40.528537 81.178705 
L 42.219446 70.729623 
L 43.910355 63.431216 
L 45.601264 58.171437 
L 47.292173 54.244623 
L 48.983082 51.220734 
L 50.673991 48.835653 
L 52.364901 46.921015 
L 54.05581 45.36396 
L 55.746719 44.084924 
L 57.437628 43.025376 
L 59.128537 42.140869 
L 60.819446 41.396906 
L 62.510355 40.766335 
L 64.201264 40.227607 
L 65.892173 39.763527 
L 67.583082 39.360339 
L 69.273991 39.007014 
L 70.964901 38.694703 
L 72.65581 38.416294 
L 74.346719 38.166068 
L 76.037628 37.939419 
L 77.728537 37.732631 
L 79.419446 37.542703 
L 81.110355 37.367201 
L 82.801264 37.204149 
L 84.492173 37.051937 
L 86.183082 36.909244 
L 87.873991 36.774986 
L 89.564901 36.648266 
L 91.25581 36.528337 
L 92.946719 36.414574 
L 94.637628 36.30645 
L 96.328537 36.203516 
L 98.019446 36.105388 
L 99.710355 36.011731 
L 101.401264 35.922257 
L 103.092173 35.836709 
L 104.783082 35.754859 
L 106.473991 35.676505 
L 108.164901 35.601461 
L 109.85581 35.529561 
L 111.546719 35.46065 
L 113.237628 35.394587 
L 114.928537 35.331241 
L 116.619446 35.270489 
L 118.310355 35.212216 
L 120.001264 35.156315 
L 121.692173 35.102683 
L 123.383082 35.051224 
L 125.073991 35.001847 
L 126.764901 34.954465 
L 128.45581 34.908996 
L 130.146719 34.86536 
L 131.837628 34.823483 
L 133.528537 34.783293 
L 135.219446 34.744721 
L 136.910355 34.707701 
L 138.601264 34.672171 
L 140.292173 34.638071 
L 141.983082 34.605342 
L 143.673991 34.573929 
L 145.364901 34.54378 
L 147.05581 34.514843 
L 148.746719 34.487069 
L 150.437628 34.460413 
L 152.128537 34.434828 
L 153.819446 34.410272 
L 155.510355 34.386704 
L 157.201264 34.364083 
L 158.892173 34.342372 
L 160.583082 34.321535 
L 162.273991 34.301535 
L 163.964901 34.28234 
L 165.65581 34.263916 
L 167.346719 34.246234 
L 169.037628 34.229263 
L 170.728537 34.212974 
L 172.419446 34.197341 
L 174.110355 34.182337 
L 175.801264 34.167937 
L 177.492173 34.154115 
L 179.183082 34.14085 
L 180.873991 34.128119 
L 182.564901 34.1159 
L 184.25581 34.104172 
L 185.946719 34.092917 
L 187.637628 34.082114 
L 189.328537 34.071746 
L 191.019446 34.061795 
L 192.710355 34.052245 
L 194.401264 34.043079 
L 196.092173 34.034282 
L 197.783082 34.02584 
L 199.473991 34.017736 
L 201.164901 34.00996 
L 202.85581 34.002496 
L 204.546719 33.995332 
" clip-path="url(#p7dff1aaabd)" style="fill: none; stroke: #648fff; stroke-width: 1.5; stroke-linecap: round"/>
   </g>
   <g id="line2d_16">
    <path d="M 37.146719 118.08 
L 38.837628 102.447399 
L 40.528537 98.241618 
L 42.219446 98.751739 
L 43.910355 100.974018 
L 45.601264 103.562459 
L 47.292173 105.981082 
L 48.983082 108.063628 
L 50.673991 109.794423 
L 52.364901 111.210128 
L 54.05581 112.359966 
L 55.746719 113.291277 
L 57.437628 114.045173 
L 59.128537 114.655907 
L 60.819446 115.151484 
L 62.510355 115.55458 
L 64.201264 115.883467 
L 65.892173 116.152817 
L 67.583082 116.374392 
L 69.273991 116.557608 
L 70.964901 116.709996 
L 72.65581 116.837573 
L 74.346719 116.945151 
L 76.037628 117.036572 
L 77.728537 117.114905 
L 79.419446 117.182605 
L 81.110355 117.241633 
L 82.801264 117.293559 
L 84.492173 117.339639 
L 86.183082 117.38088 
L 87.873991 117.418092 
L 89.564901 117.451924 
L 91.25581 117.482901 
L 92.946719 117.511445 
L 94.637628 117.537899 
L 96.328537 117.562542 
L 98.019446 117.585601 
L 99.710355 117.607263 
L 101.401264 117.627682 
L 103.092173 117.646983 
L 104.783082 117.665275 
L 106.473991 117.682646 
L 108.164901 117.699172 
L 109.85581 117.714917 
L 111.546719 117.729938 
L 113.237628 117.744282 
L 114.928537 117.757992 
L 116.619446 117.771106 
L 118.310355 117.783657 
L 120.001264 117.795675 
L 121.692173 117.807188 
L 123.383082 117.818221 
L 125.073991 117.828796 
L 126.764901 117.838936 
L 128.45581 117.84866 
L 130.146719 117.857986 
L 131.837628 117.866932 
L 133.528537 117.875515 
L 135.219446 117.88375 
L 136.910355 117.891651 
L 138.601264 117.899233 
L 140.292173 117.906508 
L 141.983082 117.91349 
L 143.673991 117.920191 
L 145.364901 117.926621 
L 147.05581 117.932793 
L 148.746719 117.938716 
L 150.437628 117.9444 
L 152.128537 117.949856 
L 153.819446 117.955092 
L 155.510355 117.960118 
L 157.201264 117.964942 
L 158.892173 117.969571 
L 160.583082 117.974015 
L 162.273991 117.97828 
L 163.964901 117.982373 
L 165.65581 117.986301 
L 167.346719 117.990072 
L 169.037628 117.993691 
L 170.728537 117.997164 
L 172.419446 118.000498 
L 174.110355 118.003698 
L 175.801264 118.006769 
L 177.492173 118.009716 
L 179.183082 118.012545 
L 180.873991 118.01526 
L 182.564901 118.017866 
L 184.25581 118.020367 
L 185.946719 118.022767 
L 187.637628 118.025071 
L 189.328537 118.027282 
L 191.019446 118.029404 
L 192.710355 118.031441 
L 194.401264 118.033396 
L 196.092173 118.035272 
L 197.783082 118.037073 
L 199.473991 118.038801 
L 201.164901 118.04046 
L 202.85581 118.042051 
L 204.546719 118.043579 
" clip-path="url(#p7dff1aaabd)" style="fill: none; stroke-dasharray: 5.55,2.4; stroke-dashoffset: 0; stroke: #648fff; stroke-width: 1.5"/>
   </g>
   <g id="line2d_17">
    <path d="M 37.146719 118.08 
L 38.837628 115.523951 
L 40.528537 112.184235 
L 42.219446 110.178626 
L 43.910355 109.499276 
L 45.601264 109.698965 
L 47.292173 110.360179 
L 48.983082 111.198609 
L 50.673991 112.051217 
L 52.364901 112.838128 
L 54.05581 113.528622 
L 55.746719 114.117933 
L 57.437628 114.613397 
L 59.128537 115.026929 
L 60.819446 115.371252 
L 62.510355 115.658206 
L 64.201264 115.898111 
L 65.892173 116.09966 
L 67.583082 116.270024 
L 69.273991 116.415051 
L 70.964901 116.539478 
L 72.65581 116.64712 
L 74.346719 116.741049 
L 76.037628 116.823731 
L 77.728537 116.897144 
L 79.419446 116.96288 
L 81.110355 117.022217 
L 82.801264 117.076185 
L 84.492173 117.125612 
L 86.183082 117.171171 
L 87.873991 117.213405 
L 89.564901 117.252755 
L 91.25581 117.289583 
L 92.946719 117.324185 
L 94.637628 117.356805 
L 96.328537 117.387645 
L 98.019446 117.416874 
L 99.710355 117.444634 
L 101.401264 117.471046 
L 103.092173 117.496212 
L 104.783082 117.520221 
L 106.473991 117.54315 
L 108.164901 117.565067 
L 109.85581 117.586031 
L 111.546719 117.606096 
L 113.237628 117.62531 
L 114.928537 117.643717 
L 116.619446 117.661357 
L 118.310355 117.678266 
L 120.001264 117.694479 
L 121.692173 117.710027 
L 123.383082 117.724939 
L 125.073991 117.739244 
L 126.764901 117.752969 
L 128.45581 117.766136 
L 130.146719 117.778771 
L 131.837628 117.790895 
L 133.528537 117.802529 
L 135.219446 117.813694 
L 136.910355 117.824409 
L 138.601264 117.834693 
L 140.292173 117.844562 
L 141.983082 117.854034 
L 143.673991 117.863125 
L 145.364901 117.871851 
L 147.05581 117.880225 
L 148.746719 117.888262 
L 150.437628 117.895976 
L 152.128537 117.90338 
L 153.819446 117.910487 
L 155.510355 117.917307 
L 157.201264 117.923854 
L 158.892173 117.930137 
L 160.583082 117.936167 
L 162.273991 117.941955 
L 163.964901 117.94751 
L 165.65581 117.952842 
L 167.346719 117.957959 
L 169.037628 117.962871 
L 170.728537 117.967585 
L 172.419446 117.972109 
L 174.110355 117.976451 
L 175.801264 117.980619 
L 177.492173 117.984619 
L 179.183082 117.988458 
L 180.873991 117.992143 
L 182.564901 117.99568 
L 184.25581 117.999074 
L 185.946719 118.002332 
L 187.637628 118.005458 
L 189.328537 118.008459 
L 191.019446 118.011339 
L 192.710355 118.014103 
L 194.401264 118.016756 
L 196.092173 118.019302 
L 197.783082 118.021746 
L 199.473991 118.024091 
L 201.164901 118.026342 
L 202.85581 118.028502 
L 204.546719 118.030576 
" clip-path="url(#p7dff1aaabd)" style="fill: none; stroke-dasharray: 5.55,2.4; stroke-dashoffset: 0; stroke: #fe6100; stroke-width: 1.5"/>
   </g>
   <g id="line2d_18">
    <path d="M 37.146719 118.08 
L 38.837628 117.729045 
L 40.528537 116.268479 
L 42.219446 114.007965 
L 43.910355 111.479285 
L 45.601264 109.063499 
L 47.292173 106.966134 
L 48.983082 105.26564 
L 50.673991 103.964484 
L 52.364901 103.026568 
L 54.05581 102.400528 
L 55.746719 102.032625 
L 57.437628 101.873021 
L 59.128537 101.87828 
L 60.819446 102.011872 
L 62.510355 102.243758 
L 64.201264 102.549591 
L 65.892173 102.909841 
L 67.583082 103.30896 
L 69.273991 103.734649 
L 70.964901 104.177238 
L 72.65581 104.629165 
L 74.346719 105.084558 
L 76.037628 105.53889 
L 77.728537 105.988706 
L 79.419446 106.431398 
L 81.110355 106.86503 
L 82.801264 107.288195 
L 84.492173 107.699903 
L 86.183082 108.099491 
L 87.873991 108.486551 
L 89.564901 108.860875 
L 91.25581 109.222405 
L 92.946719 109.571203 
L 94.637628 109.907421 
L 96.328537 110.231276 
L 98.019446 110.543036 
L 99.710355 110.843005 
L 101.401264 111.131509 
L 103.092173 111.408893 
L 104.783082 111.675512 
L 106.473991 111.931722 
L 108.164901 112.177883 
L 109.85581 112.414351 
L 111.546719 112.641476 
L 113.237628 112.859604 
L 114.928537 113.069071 
L 116.619446 113.270206 
L 118.310355 113.463326 
L 120.001264 113.648742 
L 121.692173 113.826752 
L 123.383082 113.997646 
L 125.073991 114.161702 
L 126.764901 114.319189 
L 128.45581 114.470367 
L 130.146719 114.615486 
L 131.837628 114.754785 
L 133.528537 114.888497 
L 135.219446 115.016843 
L 136.910355 115.140038 
L 138.601264 115.258287 
L 140.292173 115.371787 
L 141.983082 115.480729 
L 143.673991 115.585294 
L 145.364901 115.685658 
L 147.05581 115.78199 
L 148.746719 115.874449 
L 150.437628 115.963193 
L 152.128537 116.04837 
L 153.819446 116.130122 
L 155.510355 116.208587 
L 157.201264 116.283898 
L 158.892173 116.35618 
L 160.583082 116.425556 
L 162.273991 116.492141 
L 163.964901 116.556049 
L 165.65581 116.617386 
L 167.346719 116.676256 
L 169.037628 116.732757 
L 170.728537 116.786986 
L 172.419446 116.839033 
L 174.110355 116.888987 
L 175.801264 116.93693 
L 177.492173 116.982945 
L 179.183082 117.027108 
L 180.873991 117.069493 
L 182.564901 117.110174 
L 184.25581 117.149217 
L 185.946719 117.186689 
L 187.637628 117.222653 
L 189.328537 117.25717 
L 191.019446 117.290298 
L 192.710355 117.322092 
L 194.401264 117.352606 
L 196.092173 117.381893 
L 197.783082 117.41 
L 199.473991 117.436977 
L 201.164901 117.462867 
L 202.85581 117.487715 
L 204.546719 117.511563 
" clip-path="url(#p7dff1aaabd)" style="fill: none; stroke-dasharray: 1.5,2.475; stroke-dashoffset: 0; stroke: #fe6100; stroke-width: 1.5"/>
   </g>
   <g id="line2d_19">
    <path d="M 37.146719 118.08 
L 38.837628 118.07649 
L 40.528537 118.040433 
L 42.219446 117.935181 
L 43.910355 117.741757 
L 45.601264 117.458128 
L 47.292173 117.092735 
L 48.983082 116.658909 
L 50.673991 116.171225 
L 52.364901 115.643506 
L 54.05581 115.087912 
L 55.746719 114.514668 
L 57.437628 113.932116 
L 59.128537 113.34692 
L 60.819446 112.764309 
L 62.510355 112.188324 
L 64.201264 111.622036 
L 65.892173 111.067735 
L 67.583082 110.527085 
L 69.273991 110.001257 
L 70.964901 109.491029 
L 72.65581 108.996873 
L 74.346719 108.51902 
L 76.037628 108.057519 
L 77.728537 107.612272 
L 79.419446 107.183074 
L 81.110355 106.769641 
L 82.801264 106.371625 
L 84.492173 105.988637 
L 86.183082 105.620258 
L 87.873991 105.266048 
L 89.564901 104.925556 
L 91.25581 104.598328 
L 92.946719 104.283907 
L 94.637628 103.98184 
L 96.328537 103.691681 
L 98.019446 103.412993 
L 99.710355 103.145347 
L 101.401264 102.888327 
L 103.092173 102.641527 
L 104.783082 102.404555 
L 106.473991 102.177031 
L 108.164901 101.958586 
L 109.85581 101.748866 
L 111.546719 101.54753 
L 113.237628 101.354246 
L 114.928537 101.168698 
L 116.619446 100.990578 
L 118.310355 100.819594 
L 120.001264 100.655461 
L 121.692173 100.497907 
L 123.383082 100.34667 
L 125.073991 100.201499 
L 126.764901 100.062152 
L 128.45581 99.928397 
L 130.146719 99.800009 
L 131.837628 99.676775 
L 133.528537 99.558489 
L 135.219446 99.444952 
L 136.910355 99.335975 
L 138.601264 99.231375 
L 140.292173 99.130977 
L 141.983082 99.034612 
L 143.673991 98.942119 
L 145.364901 98.853343 
L 147.05581 98.768134 
L 148.746719 98.68635 
L 150.437628 98.607854 
L 152.128537 98.532512 
L 153.819446 98.4602 
L 155.510355 98.390795 
L 157.201264 98.32418 
L 158.892173 98.260244 
L 160.583082 98.198879 
L 162.273991 98.139982 
L 163.964901 98.083453 
L 165.65581 98.029198 
L 167.346719 97.977125 
L 169.037628 97.927147 
L 170.728537 97.879179 
L 172.419446 97.833141 
L 174.110355 97.788955 
L 175.801264 97.746547 
L 177.492173 97.705845 
L 179.183082 97.66678 
L 180.873991 97.629288 
L 182.564901 97.593304 
L 184.25581 97.558768 
L 185.946719 97.525621 
L 187.637628 97.493809 
L 189.328537 97.463277 
L 191.019446 97.433973 
L 192.710355 97.405849 
L 194.401264 97.378857 
L 196.092173 97.352951 
L 197.783082 97.328088 
L 199.473991 97.304226 
L 201.164901 97.281324 
L 202.85581 97.259344 
L 204.546719 97.238249 
" clip-path="url(#p7dff1aaabd)" style="fill: none; stroke: #fe6100; stroke-width: 1.5; stroke-linecap: round"/>
   </g>
   <g id="patch_3">
    <path d="M 37.146719 118.08 
L 37.146719 7.2 
" style="fill: none; stroke: #000000; stroke-width: 0.5; stroke-linejoin: miter; stroke-linecap: square"/>
   </g>
   <g id="patch_4">
    <path d="M 204.546719 118.08 
L 204.546719 7.2 
" style="fill: none; stroke: #000000; stroke-width: 0.5; stroke-linejoin: miter; stroke-linecap: square"/>
   </g>
   <g id="patch_5">
    <path d="M 37.146719 118.08 
L 204.546719 118.08 
" style="fill: none; stroke: #000000; stroke-width: 0.5; stroke-linejoin: miter; stroke-linecap: square"/>
   </g>
   <g id="patch_6">
    <path d="M 37.146719 7.2 
L 204.546719 7.2 
" style="fill: none; stroke: #000000; stroke-width: 0.5; stroke-linejoin: miter; stroke-linecap: square"/>
   </g>
   <g id="legend_1">
    <g id="patch_7">
     <path d="M 50.416719 73.319113 
L 101.610781 73.319113 
Q 103.010781 73.319113 103.010781 71.919112 
L 103.010781 13.2088 
Q 103.010781 11.8088 101.610781 11.8088 
L 50.416719 11.8088 
Q 49.016719 11.8088 49.016719 13.2088 
L 49.016719 71.919112 
Q 49.016719 73.319113 50.416719 73.319113 
z
" style="fill: #ffffff; opacity: 0.8; stroke: #cccccc; stroke-linejoin: miter"/>
    </g>
    <g id="line2d_20">
     <path d="M 51.816719 17.169269 
L 58.816719 17.169269 
L 65.816719 17.169269 
" style="fill: none; stroke-dasharray: 1.5,2.475; stroke-dashoffset: 0; stroke: #648fff; stroke-width: 1.5"/>
    </g>
    <g id="text_16">
     <!-- IP -->
     <g style="fill: #262626" transform="translate(71.416719 19.619269) scale(0.07 -0.07)">
      <defs>
       <path id="ArialMT-49" d="M 597 0 
L 597 4581 
L 1203 4581 
L 1203 0 
L 597 0 
z
" transform="scale(0.015625)"/>
       <path id="ArialMT-50" d="M 494 0 
L 494 4581 
L 2222 4581 
Q 2678 4581 2919 4538 
Q 3256 4481 3484 4323 
Q 3713 4166 3852 3881 
Q 3991 3597 3991 3256 
Q 3991 2672 3619 2267 
Q 3247 1863 2275 1863 
L 1100 1863 
L 1100 0 
L 494 0 
z
M 1100 2403 
L 2284 2403 
Q 2872 2403 3119 2622 
Q 3366 2841 3366 3238 
Q 3366 3525 3220 3729 
Q 3075 3934 2838 4000 
Q 2684 4041 2272 4041 
L 1100 4041 
L 1100 2403 
z
" transform="scale(0.015625)"/>
      </defs>
      <use xlink:href="#ArialMT-49"/>
      <use xlink:href="#ArialMT-50" x="27.783203"/>
     </g>
    </g>
    <g id="line2d_21">
     <path d="M 51.816719 27.070987 
L 58.816719 27.070987 
L 65.816719 27.070987 
" style="fill: none; stroke: #648fff; stroke-width: 1.5; stroke-linecap: round"/>
    </g>
    <g id="text_17">
     <!-- Isoprenol -->
     <g style="fill: #262626" transform="translate(71.416719 29.520987) scale(0.07 -0.07)">
      <defs>
       <path id="ArialMT-73" d="M 197 991 
L 753 1078 
Q 800 744 1014 566 
Q 1228 388 1613 388 
Q 2000 388 2187 545 
Q 2375 703 2375 916 
Q 2375 1106 2209 1216 
Q 2094 1291 1634 1406 
Q 1016 1563 777 1677 
Q 538 1791 414 1992 
Q 291 2194 291 2438 
Q 291 2659 392 2848 
Q 494 3038 669 3163 
Q 800 3259 1026 3326 
Q 1253 3394 1513 3394 
Q 1903 3394 2198 3281 
Q 2494 3169 2634 2976 
Q 2775 2784 2828 2463 
L 2278 2388 
Q 2241 2644 2061 2787 
Q 1881 2931 1553 2931 
Q 1166 2931 1000 2803 
Q 834 2675 834 2503 
Q 834 2394 903 2306 
Q 972 2216 1119 2156 
Q 1203 2125 1616 2013 
Q 2213 1853 2448 1751 
Q 2684 1650 2818 1456 
Q 2953 1263 2953 975 
Q 2953 694 2789 445 
Q 2625 197 2315 61 
Q 2006 -75 1616 -75 
Q 969 -75 630 194 
Q 291 463 197 991 
z
" transform="scale(0.015625)"/>
       <path id="ArialMT-6f" d="M 213 1659 
Q 213 2581 725 3025 
Q 1153 3394 1769 3394 
Q 2453 3394 2887 2945 
Q 3322 2497 3322 1706 
Q 3322 1066 3130 698 
Q 2938 331 2570 128 
Q 2203 -75 1769 -75 
Q 1072 -75 642 372 
Q 213 819 213 1659 
z
M 791 1659 
Q 791 1022 1069 705 
Q 1347 388 1769 388 
Q 2188 388 2466 706 
Q 2744 1025 2744 1678 
Q 2744 2294 2464 2611 
Q 2184 2928 1769 2928 
Q 1347 2928 1069 2612 
Q 791 2297 791 1659 
z
" transform="scale(0.015625)"/>
       <path id="ArialMT-70" d="M 422 -1272 
L 422 3319 
L 934 3319 
L 934 2888 
Q 1116 3141 1344 3267 
Q 1572 3394 1897 3394 
Q 2322 3394 2647 3175 
Q 2972 2956 3137 2557 
Q 3303 2159 3303 1684 
Q 3303 1175 3120 767 
Q 2938 359 2589 142 
Q 2241 -75 1856 -75 
Q 1575 -75 1351 44 
Q 1128 163 984 344 
L 984 -1272 
L 422 -1272 
z
M 931 1641 
Q 931 1000 1190 694 
Q 1450 388 1819 388 
Q 2194 388 2461 705 
Q 2728 1022 2728 1688 
Q 2728 2322 2467 2637 
Q 2206 2953 1844 2953 
Q 1484 2953 1207 2617 
Q 931 2281 931 1641 
z
" transform="scale(0.015625)"/>
       <path id="ArialMT-6c" d="M 409 0 
L 409 4581 
L 972 4581 
L 972 0 
L 409 0 
z
" transform="scale(0.015625)"/>
      </defs>
      <use xlink:href="#ArialMT-49"/>
      <use xlink:href="#ArialMT-73" x="27.783203"/>
      <use xlink:href="#ArialMT-6f" x="77.783203"/>
      <use xlink:href="#ArialMT-70" x="133.398438"/>
      <use xlink:href="#ArialMT-72" x="189.013672"/>
      <use xlink:href="#ArialMT-65" x="222.314453"/>
      <use xlink:href="#ArialMT-6e" x="277.929688"/>
      <use xlink:href="#ArialMT-6f" x="333.544922"/>
      <use xlink:href="#ArialMT-6c" x="389.160156"/>
     </g>
    </g>
    <g id="line2d_22">
     <path d="M 51.816719 36.972706 
L 58.816719 36.972706 
L 65.816719 36.972706 
" style="fill: none; stroke-dasharray: 5.55,2.4; stroke-dashoffset: 0; stroke: #648fff; stroke-width: 1.5"/>
    </g>
    <g id="text_18">
     <!-- IPP -->
     <g style="fill: #262626" transform="translate(71.416719 39.422706) scale(0.07 -0.07)">
      <use xlink:href="#ArialMT-49"/>
      <use xlink:href="#ArialMT-50" x="27.783203"/>
      <use xlink:href="#ArialMT-50" x="94.482422"/>
     </g>
    </g>
    <g id="line2d_23">
     <path d="M 51.816719 46.874425 
L 58.816719 46.874425 
L 65.816719 46.874425 
" style="fill: none; stroke-dasharray: 5.55,2.4; stroke-dashoffset: 0; stroke: #fe6100; stroke-width: 1.5"/>
    </g>
    <g id="text_19">
     <!-- DMAPP -->
     <g style="fill: #262626" transform="translate(71.416719 49.324425) scale(0.07 -0.07)">
      <defs>
       <path id="ArialMT-44" d="M 494 0 
L 494 4581 
L 2072 4581 
Q 2606 4581 2888 4516 
Q 3281 4425 3559 4188 
Q 3922 3881 4101 3404 
Q 4281 2928 4281 2316 
Q 4281 1794 4159 1391 
Q 4038 988 3847 723 
Q 3656 459 3429 307 
Q 3203 156 2883 78 
Q 2563 0 2147 0 
L 494 0 
z
M 1100 541 
L 2078 541 
Q 2531 541 2789 625 
Q 3047 709 3200 863 
Q 3416 1078 3536 1442 
Q 3656 1806 3656 2325 
Q 3656 3044 3420 3430 
Q 3184 3816 2847 3947 
Q 2603 4041 2063 4041 
L 1100 4041 
L 1100 541 
z
" transform="scale(0.015625)"/>
       <path id="ArialMT-4d" d="M 475 0 
L 475 4581 
L 1388 4581 
L 2472 1338 
Q 2622 884 2691 659 
Q 2769 909 2934 1394 
L 4031 4581 
L 4847 4581 
L 4847 0 
L 4263 0 
L 4263 3834 
L 2931 0 
L 2384 0 
L 1059 3900 
L 1059 0 
L 475 0 
z
" transform="scale(0.015625)"/>
       <path id="ArialMT-41" d="M -9 0 
L 1750 4581 
L 2403 4581 
L 4278 0 
L 3588 0 
L 3053 1388 
L 1138 1388 
L 634 0 
L -9 0 
z
M 1313 1881 
L 2866 1881 
L 2388 3150 
Q 2169 3728 2063 4100 
Q 1975 3659 1816 3225 
L 1313 1881 
z
" transform="scale(0.015625)"/>
      </defs>
      <use xlink:href="#ArialMT-44"/>
      <use xlink:href="#ArialMT-4d" x="72.216797"/>
      <use xlink:href="#ArialMT-41" x="155.517578"/>
      <use xlink:href="#ArialMT-50" x="222.216797"/>
      <use xlink:href="#ArialMT-50" x="288.916016"/>
     </g>
    </g>
    <g id="line2d_24">
     <path d="M 51.816719 56.776144 
L 58.816719 56.776144 
L 65.816719 56.776144 
" style="fill: none; stroke-dasharray: 1.5,2.475; stroke-dashoffset: 0; stroke: #fe6100; stroke-width: 1.5"/>
    </g>
    <g id="text_20">
     <!-- DMAP -->
     <g style="fill: #262626" transform="translate(71.416719 59.226144) scale(0.07 -0.07)">
      <use xlink:href="#ArialMT-44"/>
      <use xlink:href="#ArialMT-4d" x="72.216797"/>
      <use xlink:href="#ArialMT-41" x="155.517578"/>
      <use xlink:href="#ArialMT-50" x="222.216797"/>
     </g>
    </g>
    <g id="line2d_25">
     <path d="M 51.816719 66.677863 
L 58.816719 66.677863 
L 65.816719 66.677863 
" style="fill: none; stroke: #fe6100; stroke-width: 1.5; stroke-linecap: round"/>
    </g>
    <g id="text_21">
     <!-- Prenol -->
     <g style="fill: #262626" transform="translate(71.416719 69.127863) scale(0.07 -0.07)">
      <use xlink:href="#ArialMT-50"/>
      <use xlink:href="#ArialMT-72" x="66.699219"/>
      <use xlink:href="#ArialMT-65" x="100"/>
      <use xlink:href="#ArialMT-6e" x="155.615234"/>
      <use xlink:href="#ArialMT-6f" x="211.230469"/>
      <use xlink:href="#ArialMT-6c" x="266.845703"/>
     </g>
    </g>
   </g>
  </g>
 </g>
 <defs>
  <clipPath id="p7dff1aaabd">
   <rect x="37.146719" y="7.2" width="167.4" height="110.88"/>
  </clipPath>
 </defs>
</svg>
