<?xml version="1.0" encoding="utf-8" standalone="no"?>
<!DOCTYPE svg PUBLIC "-//W3C//DTD SVG 1.1//EN"
  "http://www.w3.org/Graphics/SVG/1.1/DTD/svg11.dtd">
<svg xmlns:xlink="http://www.w3.org/1999/xlink" width="216.028641pt" height="160.204766pt" viewBox="0 0 216.028641 160.204766" xmlns="http://www.w3.org/2000/svg" version="1.1">
 <metadata>
  <rdf:RDF xmlns:dc="http://purl.org/dc/elements/1.1/" xmlns:cc="http://creativecommons.org/ns#" xmlns:rdf="http://www.w3.org/1999/02/22-rdf-syntax-ns#">
   <cc:Work>
    <dc:type rdf:resource="http://purl.org/dc/dcmitype/StillImage"/>
    <dc:date>2024-08-21T17:16:16.332354</dc:date>
    <dc:format>image/svg+xml</dc:format>
    <dc:creator>
     <cc:Agent>
      <dc:title>Matplotlib v3.9.0, https://matplotlib.org/</dc:title>
     </cc:Agent>
    </dc:creator>
   </cc:Work>
  </rdf:RDF>
 </metadata>
 <defs>
  <style type="text/css">*{stroke-linejoin: round; stroke-linecap: butt}</style>
 </defs>
 <g id="figure_1">
  <g id="patch_1">
   <path d="M 0 160.204766 
L 216.028641 160.204766 
L 216.028641 0 
L 0 0 
z
" style="fill: #ffffff"/>
  </g>
  <g id="axes_1">
   <g id="patch_2">
    <path d="M 37.146719 118.08 
L 204.546719 118.08 
L 204.546719 7.2 
L 37.146719 7.2 
z
" style="fill: #ffffff"/>
   </g>
   <g id="matplotlib.axis_1">
    <g id="xtick_1">
     <g id="line2d_1">
      <defs>
       <path id="m4d2bcaf37b" d="M 0 3 
L 0 -3 
" style="stroke: #262626; stroke-width: 0.5"/>
      </defs>
      <g>
       <use xlink:href="#m4d2bcaf37b" x="37.146719" y="118.08" style="fill: #262626; stroke: #262626; stroke-width: 0.5"/>
      </g>
     </g>
     <g id="text_1">
      <!-- 0 -->
      <g style="fill: #262626" transform="translate(35.005758 133.591516) scale(0.077 -0.077)">
       <defs>
        <path id="ArialMT-30" d="M 266 2259 
Q 266 3072 433 3567 
Q 600 4063 929 4331 
Q 1259 4600 1759 4600 
Q 2128 4600 2406 4451 
Q 2684 4303 2865 4023 
Q 3047 3744 3150 3342 
Q 3253 2941 3253 2259 
Q 3253 1453 3087 958 
Q 2922 463 2592 192 
Q 2263 -78 1759 -78 
Q 1097 -78 719 397 
Q 266 969 266 2259 
z
M 844 2259 
Q 844 1131 1108 757 
Q 1372 384 1759 384 
Q 2147 384 2411 759 
Q 2675 1134 2675 2259 
Q 2675 3391 2411 3762 
Q 2147 4134 1753 4134 
Q 1366 4134 1134 3806 
Q 844 3388 844 2259 
z
" transform="scale(0.015625)"/>
       </defs>
       <use xlink:href="#ArialMT-30"/>
      </g>
     </g>
    </g>
    <g id="xtick_2">
     <g id="line2d_2">
      <g>
       <use xlink:href="#m4d2bcaf37b" x="65.046719" y="118.08" style="fill: #262626; stroke: #262626; stroke-width: 0.5"/>
      </g>
     </g>
     <g id="text_2">
      <!-- 12 -->
      <g style="fill: #262626" transform="translate(60.764797 133.591516) scale(0.077 -0.077)">
       <defs>
        <path id="ArialMT-31" d="M 2384 0 
L 1822 0 
L 1822 3584 
Q 1619 3391 1289 3197 
Q 959 3003 697 2906 
L 697 3450 
Q 1169 3672 1522 3987 
Q 1875 4303 2022 4600 
L 2384 4600 
L 2384 0 
z
" transform="scale(0.015625)"/>
        <path id="ArialMT-32" d="M 3222 541 
L 3222 0 
L 194 0 
Q 188 203 259 391 
Q 375 700 629 1000 
Q 884 1300 1366 1694 
Q 2113 2306 2375 2664 
Q 2638 3022 2638 3341 
Q 2638 3675 2398 3904 
Q 2159 4134 1775 4134 
Q 1369 4134 1125 3890 
Q 881 3647 878 3216 
L 300 3275 
Q 359 3922 746 4261 
Q 1134 4600 1788 4600 
Q 2447 4600 2831 4234 
Q 3216 3869 3216 3328 
Q 3216 3053 3103 2787 
Q 2991 2522 2730 2228 
Q 2469 1934 1863 1422 
Q 1356 997 1212 845 
Q 1069 694 975 541 
L 3222 541 
z
" transform="scale(0.015625)"/>
       </defs>
       <use xlink:href="#ArialMT-31"/>
       <use xlink:href="#ArialMT-32" x="55.615234"/>
      </g>
     </g>
    </g>
    <g id="xtick_3">
     <g id="line2d_3">
      <g>
       <use xlink:href="#m4d2bcaf37b" x="92.946719" y="118.08" style="fill: #262626; stroke: #262626; stroke-width: 0.5"/>
      </g>
     </g>
     <g id="text_3">
      <!-- 24 -->
      <g style="fill: #262626" transform="translate(88.664797 133.591516) scale(0.077 -0.077)">
       <defs>
        <path id="ArialMT-34" d="M 2069 0 
L 2069 1097 
L 81 1097 
L 81 1613 
L 2172 4581 
L 2631 4581 
L 2631 1613 
L 3250 1613 
L 3250 1097 
L 2631 1097 
L 2631 0 
L 2069 0 
z
M 2069 1613 
L 2069 3678 
L 634 1613 
L 2069 1613 
z
" transform="scale(0.015625)"/>
       </defs>
       <use xlink:href="#ArialMT-32"/>
       <use xlink:href="#ArialMT-34" x="55.615234"/>
      </g>
     </g>
    </g>
    <g id="xtick_4">
     <g id="line2d_4">
      <g>
       <use xlink:href="#m4d2bcaf37b" x="120.846719" y="118.08" style="fill: #262626; stroke: #262626; stroke-width: 0.5"/>
      </g>
     </g>
     <g id="text_4">
      <!-- 36 -->
      <g style="fill: #262626" transform="translate(116.564797 133.591516) scale(0.077 -0.077)">
       <defs>
        <path id="ArialMT-33" d="M 269 1209 
L 831 1284 
Q 928 806 1161 595 
Q 1394 384 1728 384 
Q 2125 384 2398 659 
Q 2672 934 2672 1341 
Q 2672 1728 2419 1979 
Q 2166 2231 1775 2231 
Q 1616 2231 1378 2169 
L 1441 2663 
Q 1497 2656 1531 2656 
Q 1891 2656 2178 2843 
Q 2466 3031 2466 3422 
Q 2466 3731 2256 3934 
Q 2047 4138 1716 4138 
Q 1388 4138 1169 3931 
Q 950 3725 888 3313 
L 325 3413 
Q 428 3978 793 4289 
Q 1159 4600 1703 4600 
Q 2078 4600 2393 4439 
Q 2709 4278 2876 4000 
Q 3044 3722 3044 3409 
Q 3044 3113 2884 2869 
Q 2725 2625 2413 2481 
Q 2819 2388 3044 2092 
Q 3269 1797 3269 1353 
Q 3269 753 2831 336 
Q 2394 -81 1725 -81 
Q 1122 -81 723 278 
Q 325 638 269 1209 
z
" transform="scale(0.015625)"/>
        <path id="ArialMT-36" d="M 3184 3459 
L 2625 3416 
Q 2550 3747 2413 3897 
Q 2184 4138 1850 4138 
Q 1581 4138 1378 3988 
Q 1113 3794 959 3422 
Q 806 3050 800 2363 
Q 1003 2672 1297 2822 
Q 1591 2972 1913 2972 
Q 2475 2972 2870 2558 
Q 3266 2144 3266 1488 
Q 3266 1056 3080 686 
Q 2894 316 2569 119 
Q 2244 -78 1831 -78 
Q 1128 -78 684 439 
Q 241 956 241 2144 
Q 241 3472 731 4075 
Q 1159 4600 1884 4600 
Q 2425 4600 2770 4297 
Q 3116 3994 3184 3459 
z
M 888 1484 
Q 888 1194 1011 928 
Q 1134 663 1356 523 
Q 1578 384 1822 384 
Q 2178 384 2434 671 
Q 2691 959 2691 1453 
Q 2691 1928 2437 2201 
Q 2184 2475 1800 2475 
Q 1419 2475 1153 2201 
Q 888 1928 888 1484 
z
" transform="scale(0.015625)"/>
       </defs>
       <use xlink:href="#ArialMT-33"/>
       <use xlink:href="#ArialMT-36" x="55.615234"/>
      </g>
     </g>
    </g>
    <g id="xtick_5">
     <g id="line2d_5">
      <g>
       <use xlink:href="#m4d2bcaf37b" x="148.746719" y="118.08" style="fill: #262626; stroke: #262626; stroke-width: 0.5"/>
      </g>
     </g>
     <g id="text_5">
      <!-- 48 -->
      <g style="fill: #262626" transform="translate(144.464797 133.591516) scale(0.077 -0.077)">
       <defs>
        <path id="ArialMT-38" d="M 1131 2484 
Q 781 2613 612 2850 
Q 444 3088 444 3419 
Q 444 3919 803 4259 
Q 1163 4600 1759 4600 
Q 2359 4600 2725 4251 
Q 3091 3903 3091 3403 
Q 3091 3084 2923 2848 
Q 2756 2613 2416 2484 
Q 2838 2347 3058 2040 
Q 3278 1734 3278 1309 
Q 3278 722 2862 322 
Q 2447 -78 1769 -78 
Q 1091 -78 675 323 
Q 259 725 259 1325 
Q 259 1772 486 2073 
Q 713 2375 1131 2484 
z
M 1019 3438 
Q 1019 3113 1228 2906 
Q 1438 2700 1772 2700 
Q 2097 2700 2305 2904 
Q 2513 3109 2513 3406 
Q 2513 3716 2298 3927 
Q 2084 4138 1766 4138 
Q 1444 4138 1231 3931 
Q 1019 3725 1019 3438 
z
M 838 1322 
Q 838 1081 952 856 
Q 1066 631 1291 507 
Q 1516 384 1775 384 
Q 2178 384 2440 643 
Q 2703 903 2703 1303 
Q 2703 1709 2433 1975 
Q 2163 2241 1756 2241 
Q 1359 2241 1098 1978 
Q 838 1716 838 1322 
z
" transform="scale(0.015625)"/>
       </defs>
       <use xlink:href="#ArialMT-34"/>
       <use xlink:href="#ArialMT-38" x="55.615234"/>
      </g>
     </g>
    </g>
    <g id="xtick_6">
     <g id="line2d_6">
      <g>
       <use xlink:href="#m4d2bcaf37b" x="176.646719" y="118.08" style="fill: #262626; stroke: #262626; stroke-width: 0.5"/>
      </g>
     </g>
     <g id="text_6">
      <!-- 60 -->
      <g style="fill: #262626" transform="translate(172.364797 133.591516) scale(0.077 -0.077)">
       <use xlink:href="#ArialMT-36"/>
       <use xlink:href="#ArialMT-30" x="55.615234"/>
      </g>
     </g>
    </g>
    <g id="xtick_7">
     <g id="line2d_7">
      <g>
       <use xlink:href="#m4d2bcaf37b" x="204.546719" y="118.08" style="fill: #262626; stroke: #262626; stroke-width: 0.5"/>
      </g>
     </g>
     <g id="text_7">
      <!-- 72 -->
      <g style="fill: #262626" transform="translate(200.264797 133.591516) scale(0.077 -0.077)">
       <defs>
        <path id="ArialMT-37" d="M 303 3981 
L 303 4522 
L 3269 4522 
L 3269 4084 
Q 2831 3619 2401 2847 
Q 1972 2075 1738 1259 
Q 1569 684 1522 0 
L 944 0 
Q 953 541 1156 1306 
Q 1359 2072 1739 2783 
Q 2119 3494 2547 3981 
L 303 3981 
z
" transform="scale(0.015625)"/>
       </defs>
       <use xlink:href="#ArialMT-37"/>
       <use xlink:href="#ArialMT-32" x="55.615234"/>
      </g>
     </g>
    </g>
    <g id="text_8">
     <!-- Time (arb. unit) -->
     <g transform="translate(92.533469 151.236828) scale(0.084 -0.084)">
      <defs>
       <path id="ArialMT-54" d="M 1659 0 
L 1659 4041 
L 150 4041 
L 150 4581 
L 3781 4581 
L 3781 4041 
L 2266 4041 
L 2266 0 
L 1659 0 
z
" transform="scale(0.015625)"/>
       <path id="ArialMT-69" d="M 425 3934 
L 425 4581 
L 988 4581 
L 988 3934 
L 425 3934 
z
M 425 0 
L 425 3319 
L 988 3319 
L 988 0 
L 425 0 
z
" transform="scale(0.015625)"/>
       <path id="ArialMT-6d" d="M 422 0 
L 422 3319 
L 925 3319 
L 925 2853 
Q 1081 3097 1340 3245 
Q 1600 3394 1931 3394 
Q 2300 3394 2536 3241 
Q 2772 3088 2869 2813 
Q 3263 3394 3894 3394 
Q 4388 3394 4653 3120 
Q 4919 2847 4919 2278 
L 4919 0 
L 4359 0 
L 4359 2091 
Q 4359 2428 4304 2576 
Q 4250 2725 4106 2815 
Q 3963 2906 3769 2906 
Q 3419 2906 3187 2673 
Q 2956 2441 2956 1928 
L 2956 0 
L 2394 0 
L 2394 2156 
Q 2394 2531 2256 2718 
Q 2119 2906 1806 2906 
Q 1569 2906 1367 2781 
Q 1166 2656 1075 2415 
Q 984 2175 984 1722 
L 984 0 
L 422 0 
z
" transform="scale(0.015625)"/>
       <path id="ArialMT-65" d="M 2694 1069 
L 3275 997 
Q 3138 488 2766 206 
Q 2394 -75 1816 -75 
Q 1088 -75 661 373 
Q 234 822 234 1631 
Q 234 2469 665 2931 
Q 1097 3394 1784 3394 
Q 2450 3394 2872 2941 
Q 3294 2488 3294 1666 
Q 3294 1616 3291 1516 
L 816 1516 
Q 847 969 1125 678 
Q 1403 388 1819 388 
Q 2128 388 2347 550 
Q 2566 713 2694 1069 
z
M 847 1978 
L 2700 1978 
Q 2663 2397 2488 2606 
Q 2219 2931 1791 2931 
Q 1403 2931 1139 2672 
Q 875 2413 847 1978 
z
" transform="scale(0.015625)"/>
       <path id="ArialMT-20" transform="scale(0.015625)"/>
       <path id="ArialMT-28" d="M 1497 -1347 
Q 1031 -759 709 28 
Q 388 816 388 1659 
Q 388 2403 628 3084 
Q 909 3875 1497 4659 
L 1900 4659 
Q 1522 4009 1400 3731 
Q 1209 3300 1100 2831 
Q 966 2247 966 1656 
Q 966 153 1900 -1347 
L 1497 -1347 
z
" transform="scale(0.015625)"/>
       <path id="ArialMT-61" d="M 2588 409 
Q 2275 144 1986 34 
Q 1697 -75 1366 -75 
Q 819 -75 525 192 
Q 231 459 231 875 
Q 231 1119 342 1320 
Q 453 1522 633 1644 
Q 813 1766 1038 1828 
Q 1203 1872 1538 1913 
Q 2219 1994 2541 2106 
Q 2544 2222 2544 2253 
Q 2544 2597 2384 2738 
Q 2169 2928 1744 2928 
Q 1347 2928 1158 2789 
Q 969 2650 878 2297 
L 328 2372 
Q 403 2725 575 2942 
Q 747 3159 1072 3276 
Q 1397 3394 1825 3394 
Q 2250 3394 2515 3294 
Q 2781 3194 2906 3042 
Q 3031 2891 3081 2659 
Q 3109 2516 3109 2141 
L 3109 1391 
Q 3109 606 3145 398 
Q 3181 191 3288 0 
L 2700 0 
Q 2613 175 2588 409 
z
M 2541 1666 
Q 2234 1541 1622 1453 
Q 1275 1403 1131 1340 
Q 988 1278 909 1158 
Q 831 1038 831 891 
Q 831 666 1001 516 
Q 1172 366 1500 366 
Q 1825 366 2078 508 
Q 2331 650 2450 897 
Q 2541 1088 2541 1459 
L 2541 1666 
z
" transform="scale(0.015625)"/>
       <path id="ArialMT-72" d="M 416 0 
L 416 3319 
L 922 3319 
L 922 2816 
Q 1116 3169 1280 3281 
Q 1444 3394 1641 3394 
Q 1925 3394 2219 3213 
L 2025 2691 
Q 1819 2813 1613 2813 
Q 1428 2813 1281 2702 
Q 1134 2591 1072 2394 
Q 978 2094 978 1738 
L 978 0 
L 416 0 
z
" transform="scale(0.015625)"/>
       <path id="ArialMT-62" d="M 941 0 
L 419 0 
L 419 4581 
L 981 4581 
L 981 2947 
Q 1338 3394 1891 3394 
Q 2197 3394 2470 3270 
Q 2744 3147 2920 2923 
Q 3097 2700 3197 2384 
Q 3297 2069 3297 1709 
Q 3297 856 2875 390 
Q 2453 -75 1863 -75 
Q 1275 -75 941 416 
L 941 0 
z
M 934 1684 
Q 934 1088 1097 822 
Q 1363 388 1816 388 
Q 2184 388 2453 708 
Q 2722 1028 2722 1663 
Q 2722 2313 2464 2622 
Q 2206 2931 1841 2931 
Q 1472 2931 1203 2611 
Q 934 2291 934 1684 
z
" transform="scale(0.015625)"/>
       <path id="ArialMT-2e" d="M 581 0 
L 581 641 
L 1222 641 
L 1222 0 
L 581 0 
z
" transform="scale(0.015625)"/>
       <path id="ArialMT-75" d="M 2597 0 
L 2597 488 
Q 2209 -75 1544 -75 
Q 1250 -75 995 37 
Q 741 150 617 320 
Q 494 491 444 738 
Q 409 903 409 1263 
L 409 3319 
L 972 3319 
L 972 1478 
Q 972 1038 1006 884 
Q 1059 663 1231 536 
Q 1403 409 1656 409 
Q 1909 409 2131 539 
Q 2353 669 2445 892 
Q 2538 1116 2538 1541 
L 2538 3319 
L 3100 3319 
L 3100 0 
L 2597 0 
z
" transform="scale(0.015625)"/>
       <path id="ArialMT-6e" d="M 422 0 
L 422 3319 
L 928 3319 
L 928 2847 
Q 1294 3394 1984 3394 
Q 2284 3394 2536 3286 
Q 2788 3178 2913 3003 
Q 3038 2828 3088 2588 
Q 3119 2431 3119 2041 
L 3119 0 
L 2556 0 
L 2556 2019 
Q 2556 2363 2490 2533 
Q 2425 2703 2258 2804 
Q 2091 2906 1866 2906 
Q 1506 2906 1245 2678 
Q 984 2450 984 1813 
L 984 0 
L 422 0 
z
" transform="scale(0.015625)"/>
       <path id="ArialMT-74" d="M 1650 503 
L 1731 6 
Q 1494 -44 1306 -44 
Q 1000 -44 831 53 
Q 663 150 594 308 
Q 525 466 525 972 
L 525 2881 
L 113 2881 
L 113 3319 
L 525 3319 
L 525 4141 
L 1084 4478 
L 1084 3319 
L 1650 3319 
L 1650 2881 
L 1084 2881 
L 1084 941 
Q 1084 700 1114 631 
Q 1144 563 1211 522 
Q 1278 481 1403 481 
Q 1497 481 1650 503 
z
" transform="scale(0.015625)"/>
       <path id="ArialMT-29" d="M 791 -1347 
L 388 -1347 
Q 1322 153 1322 1656 
Q 1322 2244 1188 2822 
Q 1081 3291 891 3722 
Q 769 4003 388 4659 
L 791 4659 
Q 1378 3875 1659 3084 
Q 1900 2403 1900 1659 
Q 1900 816 1576 28 
Q 1253 -759 791 -1347 
z
" transform="scale(0.015625)"/>
      </defs>
      <use xlink:href="#ArialMT-54"/>
      <use xlink:href="#ArialMT-69" x="57.333984"/>
      <use xlink:href="#ArialMT-6d" x="79.550781"/>
      <use xlink:href="#ArialMT-65" x="162.851562"/>
      <use xlink:href="#ArialMT-20" x="218.466797"/>
      <use xlink:href="#ArialMT-28" x="246.25"/>
      <use xlink:href="#ArialMT-61" x="279.550781"/>
      <use xlink:href="#ArialMT-72" x="335.166016"/>
      <use xlink:href="#ArialMT-62" x="368.466797"/>
      <use xlink:href="#ArialMT-2e" x="424.082031"/>
      <use xlink:href="#ArialMT-20" x="451.865234"/>
      <use xlink:href="#ArialMT-75" x="479.648438"/>
      <use xlink:href="#ArialMT-6e" x="535.263672"/>
      <use xlink:href="#ArialMT-69" x="590.878906"/>
      <use xlink:href="#ArialMT-74" x="613.095703"/>
      <use xlink:href="#ArialMT-29" x="640.878906"/>
     </g>
    </g>
   </g>
   <g id="matplotlib.axis_2">
    <g id="ytick_1">
     <g id="line2d_8">
      <defs>
       <path id="mbf4d5147a1" d="M 0 0 
L 4 0 
" style="stroke: #262626; stroke-width: 0.5"/>
      </defs>
      <g>
       <use xlink:href="#mbf4d5147a1" x="37.146719" y="118.08" style="fill: #262626; stroke: #262626; stroke-width: 0.5"/>
      </g>
     </g>
     <g id="text_9">
      <!-- 0 -->
      <g style="fill: #262626" transform="translate(29.364797 120.835758) scale(0.077 -0.077)">
       <use xlink:href="#ArialMT-30"/>
      </g>
     </g>
    </g>
    <g id="ytick_2">
     <g id="line2d_9">
      <g>
       <use xlink:href="#mbf4d5147a1" x="37.146719" y="96.96" style="fill: #262626; stroke: #262626; stroke-width: 0.5"/>
      </g>
     </g>
     <g id="text_10">
      <!-- 2 -->
      <g style="fill: #262626" transform="translate(29.364797 99.715758) scale(0.077 -0.077)">
       <use xlink:href="#ArialMT-32"/>
      </g>
     </g>
    </g>
    <g id="ytick_3">
     <g id="line2d_10">
      <g>
       <use xlink:href="#mbf4d5147a1" x="37.146719" y="75.84" style="fill: #262626; stroke: #262626; stroke-width: 0.5"/>
      </g>
     </g>
     <g id="text_11">
      <!-- 4 -->
      <g style="fill: #262626" transform="translate(29.364797 78.595758) scale(0.077 -0.077)">
       <use xlink:href="#ArialMT-34"/>
      </g>
     </g>
    </g>
    <g id="ytick_4">
     <g id="line2d_11">
      <g>
       <use xlink:href="#mbf4d5147a1" x="37.146719" y="54.72" style="fill: #262626; stroke: #262626; stroke-width: 0.5"/>
      </g>
     </g>
     <g id="text_12">
      <!-- 6 -->
      <g style="fill: #262626" transform="translate(29.364797 57.475758) scale(0.077 -0.077)">
       <use xlink:href="#ArialMT-36"/>
      </g>
     </g>
    </g>
    <g id="ytick_5">
     <g id="line2d_12">
      <g>
       <use xlink:href="#mbf4d5147a1" x="37.146719" y="33.6" style="fill: #262626; stroke: #262626; stroke-width: 0.5"/>
      </g>
     </g>
     <g id="text_13">
      <!-- 8 -->
      <g style="fill: #262626" transform="translate(29.364797 36.355758) scale(0.077 -0.077)">
       <use xlink:href="#ArialMT-38"/>
      </g>
     </g>
    </g>
    <g id="ytick_6">
     <g id="line2d_13">
      <g>
       <use xlink:href="#mbf4d5147a1" x="37.146719" y="12.48" style="fill: #262626; stroke: #262626; stroke-width: 0.5"/>
      </g>
     </g>
     <g id="text_14">
      <!-- 10 -->
      <g style="fill: #262626" transform="translate(25.082875 15.235758) scale(0.077 -0.077)">
       <use xlink:href="#ArialMT-31"/>
       <use xlink:href="#ArialMT-30" x="55.615234"/>
      </g>
     </g>
    </g>
    <g id="text_15">
     <!-- Titer (arb. unit) -->
     <g transform="translate(13.314938 90.020062) rotate(-90) scale(0.084 -0.084)">
      <use xlink:href="#ArialMT-54"/>
      <use xlink:href="#ArialMT-69" x="57.333984"/>
      <use xlink:href="#ArialMT-74" x="79.550781"/>
      <use xlink:href="#ArialMT-65" x="107.333984"/>
      <use xlink:href="#ArialMT-72" x="162.949219"/>
      <use xlink:href="#ArialMT-20" x="196.25"/>
      <use xlink:href="#ArialMT-28" x="224.033203"/>
      <use xlink:href="#ArialMT-61" x="257.333984"/>
      <use xlink:href="#ArialMT-72" x="312.949219"/>
      <use xlink:href="#ArialMT-62" x="346.25"/>
      <use xlink:href="#ArialMT-2e" x="401.865234"/>
      <use xlink:href="#ArialMT-20" x="429.648438"/>
      <use xlink:href="#ArialMT-75" x="457.431641"/>
      <use xlink:href="#ArialMT-6e" x="513.046875"/>
      <use xlink:href="#ArialMT-69" x="568.662109"/>
      <use xlink:href="#ArialMT-74" x="590.878906"/>
      <use xlink:href="#ArialMT-29" x="618.662109"/>
     </g>
    </g>
   </g>
   <g id="line2d_14">
    <path d="M 37.146719 118.08 
L 38.837628 102.748415 
L 40.528537 98.95769 
L 42.219446 99.599613 
L 43.910355 101.713376 
L 45.601264 104.104624 
L 47.292173 106.333747 
L 48.983082 108.269047 
L 50.673991 109.897146 
L 52.364901 111.245961 
L 54.05581 112.354582 
L 55.746719 113.262006 
L 57.437628 114.003268 
L 59.128537 114.608449 
L 60.819446 115.102779 
L 62.510355 115.507132 
L 64.201264 115.838625 
L 65.892173 116.11121 
L 67.583082 116.336208 
L 69.273991 116.522777 
L 70.964901 116.678306 
L 72.65581 116.808744 
L 74.346719 116.918881 
L 76.037628 117.012561 
L 77.728537 117.092874 
L 79.419446 117.1623 
L 81.110355 117.22283 
L 82.801264 117.276061 
L 84.492173 117.323279 
L 86.183082 117.365515 
L 87.873991 117.4036 
L 89.564901 117.438204 
L 91.25581 117.469866 
L 92.946719 117.499024 
L 94.637628 117.526033 
L 96.328537 117.55118 
L 98.019446 117.574702 
L 99.710355 117.596792 
L 101.401264 117.617608 
L 103.092173 117.637283 
L 104.783082 117.655927 
L 106.473991 117.673631 
L 108.164901 117.690474 
L 109.85581 117.706523 
L 111.546719 117.721834 
L 113.237628 117.736458 
L 114.928537 117.750437 
L 116.619446 117.763811 
L 118.310355 117.776613 
L 120.001264 117.788875 
L 121.692173 117.800623 
L 123.383082 117.811884 
L 125.073991 117.82268 
L 126.764901 117.833034 
L 128.45581 117.842966 
L 130.146719 117.852493 
L 131.837628 117.861635 
L 133.528537 117.870406 
L 135.219446 117.878824 
L 136.910355 117.886903 
L 138.601264 117.894656 
L 140.292173 117.902098 
L 141.983082 117.909241 
L 143.673991 117.916097 
L 145.364901 117.922678 
L 147.05581 117.928995 
L 148.746719 117.935059 
L 150.437628 117.94088 
L 152.128537 117.946467 
L 153.819446 117.95183 
L 155.510355 117.956978 
L 157.201264 117.96192 
L 158.892173 117.966664 
L 160.583082 117.971218 
L 162.273991 117.975589 
L 163.964901 117.979784 
L 165.65581 117.983812 
L 167.346719 117.987677 
L 169.037628 117.991388 
L 170.728537 117.99495 
L 172.419446 117.998369 
L 174.110355 118.001651 
L 175.801264 118.004801 
L 177.492173 118.007824 
L 179.183082 118.010727 
L 180.873991 118.013512 
L 182.564901 118.016186 
L 184.25581 118.018753 
L 185.946719 118.021216 
L 187.637628 118.02358 
L 189.328537 118.02585 
L 191.019446 118.028028 
L 192.710355 118.030119 
L 194.401264 118.032125 
L 196.092173 118.034051 
L 197.783082 118.0359 
L 199.473991 118.037674 
L 201.164901 118.039377 
L 202.85581 118.041012 
L 204.546719 118.042581 
" clip-path="url(#p2f60bacb0b)" style="fill: none; stroke-dasharray: 1.5,2.475; stroke-dashoffset: 0; stroke: #648fff; stroke-width: 1.5"/>
   </g>
   <g id="line2d_15">
    <path d="M 37.146719 118.08 
L 38.837628 114.929276 
L 40.528537 108.961311 
L 42.219446 102.619885 
L 43.910355 96.750025 
L 45.601264 91.604376 
L 47.292173 87.203775 
L 48.983082 83.48364 
L 50.673991 80.354328 
L 52.364901 77.725311 
L 54.05581 75.514165 
L 55.746719 73.649249 
L 57.437628 72.069819 
L 59.128537 70.725135 
L 60.819446 69.573227 
L 62.510355 68.579615 
L 64.201264 67.716114 
L 65.892173 66.959763 
L 67.583082 66.291907 
L 69.273991 65.69741 
L 70.964901 65.164002 
L 72.65581 64.681744 
L 74.346719 64.242574 
L 76.037628 63.839954 
L 77.728537 63.468567 
L 79.419446 63.124085 
L 81.110355 62.802974 
L 82.801264 62.502337 
L 84.492173 62.21979 
L 86.183082 61.953363 
L 87.873991 61.70142 
L 89.564901 61.46259 
L 91.25581 61.235721 
L 92.946719 61.019835 
L 94.637628 60.814095 
L 96.328537 60.617781 
L 98.019446 60.430265 
L 99.710355 60.250997 
L 101.401264 60.07949 
L 103.092173 59.91531 
L 104.783082 59.758064 
L 106.473991 59.607399 
L 108.164901 59.462988 
L 109.85581 59.324533 
L 111.546719 59.191759 
L 113.237628 59.064408 
L 114.928537 58.942239 
L 116.619446 58.825026 
L 118.310355 58.712558 
L 120.001264 58.604633 
L 121.692173 58.501061 
L 123.383082 58.40166 
L 125.073991 58.306258 
L 126.764901 58.214693 
L 128.45581 58.126806 
L 130.146719 58.042449 
L 131.837628 57.961479 
L 133.528537 57.883758 
L 135.219446 57.809156 
L 136.910355 57.737547 
L 138.601264 57.668811 
L 140.292173 57.602832 
L 141.983082 57.5395 
L 143.673991 57.47871 
L 145.364901 57.420358 
L 147.05581 57.364347 
L 148.746719 57.310584 
L 150.437628 57.258979 
L 152.128537 57.209444 
L 153.819446 57.161898 
L 155.510355 57.116261 
L 157.201264 57.072455 
L 158.892173 57.030409 
L 160.583082 56.990051 
L 162.273991 56.951313 
L 163.964901 56.914132 
L 165.65581 56.878443 
L 167.346719 56.844189 
L 169.037628 56.811311 
L 170.728537 56.779753 
L 172.419446 56.749464 
L 174.110355 56.720392 
L 175.801264 56.692488 
L 177.492173 56.665706 
L 179.183082 56.64 
L 180.873991 56.615328 
L 182.564901 56.591647 
L 184.25581 56.568919 
L 185.946719 56.547105 
L 187.637628 56.526167 
L 189.328537 56.506072 
L 191.019446 56.486784 
L 192.710355 56.468273 
L 194.401264 56.450506 
L 196.092173 56.433453 
L 197.783082 56.417086 
L 199.473991 56.401378 
L 201.164901 56.386302 
L 202.85581 56.371832 
L 204.546719 56.357944 
" clip-path="url(#p2f60bacb0b)" style="fill: none; stroke: #648fff; stroke-width: 1.5; stroke-linecap: round"/>
   </g>
   <g id="line2d_16">
    <path d="M 37.146719 12.48 
L 38.837628 52.407157 
L 40.528537 72.614774 
L 42.219446 83.957264 
L 43.910355 91.170035 
L 45.601264 96.283696 
L 47.292173 100.174829 
L 48.983082 103.248117 
L 50.673991 105.717432 
L 52.364901 107.716063 
L 54.05581 109.338923 
L 55.746719 110.659031 
L 57.437628 111.734574 
L 59.128537 112.612526 
L 60.819446 113.330929 
L 62.510355 113.920582 
L 64.201264 114.40638 
L 65.892173 114.808406 
L 67.583082 115.142836 
L 69.273991 115.422686 
L 70.964901 115.658411 
L 72.65581 115.858408 
L 74.346719 116.029415 
L 76.037628 116.176839 
L 77.728537 116.305017 
L 79.419446 116.41743 
L 81.110355 116.516873 
L 82.801264 116.605591 
L 84.492173 116.685389 
L 86.183082 116.757723 
L 87.873991 116.823764 
L 89.564901 116.88446 
L 91.25581 116.940581 
L 92.946719 116.992751 
L 94.637628 117.041478 
L 96.328537 117.087181 
L 98.019446 117.130201 
L 99.710355 117.170823 
L 101.401264 117.209282 
L 103.092173 117.245778 
L 104.783082 117.280477 
L 106.473991 117.313521 
L 108.164901 117.345032 
L 109.85581 117.375115 
L 111.546719 117.403863 
L 113.237628 117.431356 
L 114.928537 117.457667 
L 116.619446 117.482861 
L 118.310355 117.506995 
L 120.001264 117.530124 
L 121.692173 117.552295 
L 123.383082 117.573555 
L 125.073991 117.593944 
L 126.764901 117.613501 
L 128.45581 117.632264 
L 130.146719 117.650266 
L 131.837628 117.66754 
L 133.528537 117.684116 
L 135.219446 117.700025 
L 136.910355 117.715292 
L 138.601264 117.729946 
L 140.292173 117.74401 
L 141.983082 117.757509 
L 143.673991 117.770466 
L 145.364901 117.782903 
L 147.05581 117.794841 
L 148.746719 117.806299 
L 150.437628 117.817297 
L 152.128537 117.827855 
L 153.819446 117.837988 
L 155.510355 117.847715 
L 157.201264 117.857051 
L 158.892173 117.866013 
L 160.583082 117.874615 
L 162.273991 117.882872 
L 163.964901 117.890798 
L 165.65581 117.898405 
L 167.346719 117.905707 
L 169.037628 117.912715 
L 170.728537 117.919443 
L 172.419446 117.9259 
L 174.110355 117.932097 
L 175.801264 117.938046 
L 177.492173 117.943756 
L 179.183082 117.949236 
L 180.873991 117.954497 
L 182.564901 117.959545 
L 184.25581 117.964391 
L 185.946719 117.969043 
L 187.637628 117.973507 
L 189.328537 117.977792 
L 191.019446 117.981904 
L 192.710355 117.985851 
L 194.401264 117.98964 
L 196.092173 117.993276 
L 197.783082 117.996766 
L 199.473991 118.000116 
L 201.164901 118.003331 
L 202.85581 118.006416 
L 204.546719 118.009378 
" clip-path="url(#p2f60bacb0b)" style="fill: none; stroke-dasharray: 5.55,2.4; stroke-dashoffset: 0; stroke: #648fff; stroke-width: 1.5"/>
   </g>
   <g id="line2d_17">
    <path d="M 37.146719 118.08 
L 38.837628 100.258115 
L 40.528537 96.341825 
L 42.219446 97.314333 
L 43.910355 99.709544 
L 45.601264 102.258555 
L 47.292173 104.554194 
L 48.983082 106.506693 
L 50.673991 108.132112 
L 52.364901 109.47512 
L 54.05581 110.582963 
L 55.746719 111.497798 
L 57.437628 112.255193 
L 59.128537 112.884516 
L 60.819446 113.409789 
L 62.510355 113.850562 
L 64.201264 114.222696 
L 65.892173 114.539031 
L 67.583082 114.80994 
L 69.273991 115.043795 
L 70.964901 115.247342 
L 72.65581 115.426017 
L 74.346719 115.584197 
L 76.037628 115.725408 
L 77.728537 115.852493 
L 79.419446 115.967743 
L 81.110355 116.07301 
L 82.801264 116.169793 
L 84.492173 116.259307 
L 86.183082 116.342541 
L 87.873991 116.4203 
L 89.564901 116.493247 
L 91.25581 116.561925 
L 92.946719 116.626785 
L 94.637628 116.688201 
L 96.328537 116.746488 
L 98.019446 116.801911 
L 99.710355 116.854695 
L 101.401264 116.905035 
L 103.092173 116.953098 
L 104.783082 116.99903 
L 106.473991 117.042961 
L 108.164901 117.085006 
L 109.85581 117.125267 
L 111.546719 117.163837 
L 113.237628 117.200801 
L 114.928537 117.236237 
L 116.619446 117.270216 
L 118.310355 117.302805 
L 120.001264 117.334067 
L 121.692173 117.364059 
L 123.383082 117.392835 
L 125.073991 117.420449 
L 126.764901 117.446949 
L 128.45581 117.472381 
L 130.146719 117.496789 
L 131.837628 117.520216 
L 133.528537 117.542701 
L 135.219446 117.564284 
L 136.910355 117.585 
L 138.601264 117.604884 
L 140.292173 117.623971 
L 141.983082 117.642291 
L 143.673991 117.659877 
L 145.364901 117.676758 
L 147.05581 117.692961 
L 148.746719 117.708514 
L 150.437628 117.723443 
L 152.128537 117.737774 
L 153.819446 117.751529 
L 155.510355 117.764732 
L 157.201264 117.777406 
L 158.892173 117.789571 
L 160.583082 117.801248 
L 162.273991 117.812455 
L 163.964901 117.823213 
L 165.65581 117.833539 
L 167.346719 117.843451 
L 169.037628 117.852964 
L 170.728537 117.862095 
L 172.419446 117.870859 
L 174.110355 117.879272 
L 175.801264 117.887346 
L 177.492173 117.895096 
L 179.183082 117.902535 
L 180.873991 117.909674 
L 182.564901 117.916527 
L 184.25581 117.923104 
L 185.946719 117.929417 
L 187.637628 117.935476 
L 189.328537 117.941291 
L 191.019446 117.946873 
L 192.710355 117.95223 
L 194.401264 117.957372 
L 196.092173 117.962307 
L 197.783082 117.967044 
L 199.473991 117.97159 
L 201.164901 117.975953 
L 202.85581 117.980141 
L 204.546719 117.98416 
" clip-path="url(#p2f60bacb0b)" style="fill: none; stroke-dasharray: 5.55,2.4; stroke-dashoffset: 0; stroke: #fe6100; stroke-width: 1.5"/>
   </g>
   <g id="line2d_18">
    <path d="M 37.146719 118.08 
L 38.837628 114.505243 
L 40.528537 108.214079 
L 42.219446 102.068411 
L 43.910355 96.890262 
L 45.601264 92.820529 
L 47.292173 89.769815 
L 48.983082 87.585669 
L 50.673991 86.113134 
L 52.364901 85.214155 
L 54.05581 84.771772 
L 55.746719 84.689112 
L 57.437628 84.886895 
L 59.128537 85.300727 
L 60.819446 85.878611 
L 62.510355 86.578771 
L 64.201264 87.367801 
L 65.892173 88.219113 
L 67.583082 89.111654 
L 69.273991 90.028839 
L 70.964901 90.957683 
L 72.65581 91.888089 
L 74.346719 92.812274 
L 76.037628 93.724302 
L 77.728537 94.619708 
L 79.419446 95.495192 
L 81.110355 96.34838 
L 82.801264 97.177628 
L 84.492173 97.981866 
L 86.183082 98.76047 
L 87.873991 99.513169 
L 89.564901 100.23996 
L 91.25581 100.941049 
L 92.946719 101.616799 
L 94.637628 102.26769 
L 96.328537 102.894289 
L 98.019446 103.497227 
L 99.710355 104.077175 
L 101.401264 104.634831 
L 103.092173 105.170911 
L 104.783082 105.686134 
L 106.473991 106.181219 
L 108.164901 106.65688 
L 109.85581 107.113818 
L 111.546719 107.552721 
L 113.237628 107.974261 
L 114.928537 108.379094 
L 116.619446 108.767854 
L 118.310355 109.141159 
L 120.001264 109.499604 
L 121.692173 109.843766 
L 123.383082 110.174203 
L 125.073991 110.491452 
L 126.764901 110.796029 
L 128.45581 111.088434 
L 130.146719 111.369147 
L 131.837628 111.638631 
L 133.528537 111.89733 
L 135.219446 112.145671 
L 136.910355 112.384067 
L 138.601264 112.612912 
L 140.292173 112.832586 
L 141.983082 113.043456 
L 143.673991 113.24587 
L 145.364901 113.440168 
L 147.05581 113.626672 
L 148.746719 113.805694 
L 150.437628 113.977533 
L 152.128537 114.142476 
L 153.819446 114.300798 
L 155.510355 114.452765 
L 157.201264 114.59863 
L 158.892173 114.738638 
L 160.583082 114.873023 
L 162.273991 115.002011 
L 163.964901 115.125817 
L 165.65581 115.24465 
L 167.346719 115.358708 
L 169.037628 115.468183 
L 170.728537 115.573259 
L 172.419446 115.674111 
L 174.110355 115.770911 
L 175.801264 115.863819 
L 177.492173 115.952992 
L 179.183082 116.038581 
L 180.873991 116.120728 
L 182.564901 116.199573 
L 184.25581 116.275247 
L 185.946719 116.347877 
L 187.637628 116.417587 
L 189.328537 116.484494 
L 191.019446 116.548709 
L 192.710355 116.610342 
L 194.401264 116.669495 
L 196.092173 116.726269 
L 197.783082 116.780759 
L 199.473991 116.833057 
L 201.164901 116.88325 
L 202.85581 116.931425 
L 204.546719 116.977661 
" clip-path="url(#p2f60bacb0b)" style="fill: none; stroke-dasharray: 1.5,2.475; stroke-dashoffset: 0; stroke: #fe6100; stroke-width: 1.5"/>
   </g>
   <g id="line2d_19">
    <path d="M 37.146719 118.08 
L 38.837628 118.031793 
L 40.528537 117.790321 
L 42.219446 117.320494 
L 43.910355 116.646758 
L 45.601264 115.80822 
L 47.292173 114.843641 
L 48.983082 113.786835 
L 50.673991 112.665848 
L 52.364901 111.503389 
L 54.05581 110.317594 
L 55.746719 109.122803 
L 57.437628 107.930251 
L 59.128537 106.748647 
L 60.819446 105.584665 
L 62.510355 104.443338 
L 64.201264 103.328385 
L 65.892173 102.242477 
L 67.583082 101.187454 
L 69.273991 100.164493 
L 70.964901 99.174256 
L 72.65581 98.216998 
L 74.346719 97.292659 
L 76.037628 96.400936 
L 77.728537 95.541342 
L 79.419446 94.71325 
L 81.110355 93.915933 
L 82.801264 93.148589 
L 84.492173 92.410369 
L 86.183082 91.700388 
L 87.873991 91.017747 
L 89.564901 90.361538 
L 91.25581 89.730857 
L 92.946719 89.124807 
L 94.637628 88.542503 
L 96.328537 87.983081 
L 98.019446 87.445695 
L 99.710355 86.929519 
L 101.401264 86.433753 
L 103.092173 85.95762 
L 104.783082 85.500368 
L 106.473991 85.061269 
L 108.164901 84.639621 
L 109.85581 84.234745 
L 111.546719 83.845987 
L 113.237628 83.472717 
L 114.928537 83.114326 
L 116.619446 82.770232 
L 118.310355 82.439869 
L 120.001264 82.122698 
L 121.692173 81.818196 
L 123.383082 81.525863 
L 125.073991 81.245217 
L 126.764901 80.975794 
L 128.45581 80.71715 
L 130.146719 80.468855 
L 131.837628 80.2305 
L 133.528537 80.001688 
L 135.219446 79.78204 
L 136.910355 79.571192 
L 138.601264 79.368791 
L 140.292173 79.174503 
L 141.983082 78.988002 
L 143.673991 78.808979 
L 145.364901 78.637135 
L 147.05581 78.472184 
L 148.746719 78.313849 
L 150.437628 78.161867 
L 152.128537 78.015984 
L 153.819446 77.875956 
L 155.510355 77.741549 
L 157.201264 77.612537 
L 158.892173 77.488705 
L 160.583082 77.369846 
L 162.273991 77.25576 
L 163.964901 77.146256 
L 165.65581 77.041151 
L 167.346719 76.940268 
L 169.037628 76.843439 
L 170.728537 76.7505 
L 172.419446 76.661296 
L 174.110355 76.575677 
L 175.801264 76.4935 
L 177.492173 76.414625 
L 179.183082 76.338921 
L 180.873991 76.266261 
L 182.564901 76.196522 
L 184.25581 76.129586 
L 185.946719 76.065343 
L 187.637628 76.003682 
L 189.328537 75.944502 
L 191.019446 75.887701 
L 192.710355 75.833185 
L 194.401264 75.780862 
L 196.092173 75.730643 
L 197.783082 75.682445 
L 199.473991 75.636185 
L 201.164901 75.591786 
L 202.85581 75.549174 
L 204.546719 75.508276 
" clip-path="url(#p2f60bacb0b)" style="fill: none; stroke: #fe6100; stroke-width: 1.5; stroke-linecap: round"/>
   </g>
   <g id="patch_3">
    <path d="M 37.146719 118.08 
L 37.146719 7.2 
" style="fill: none; stroke: #000000; stroke-width: 0.5; stroke-linejoin: miter; stroke-linecap: square"/>
   </g>
   <g id="patch_4">
    <path d="M 204.546719 118.08 
L 204.546719 7.2 
" style="fill: none; stroke: #000000; stroke-width: 0.5; stroke-linejoin: miter; stroke-linecap: square"/>
   </g>
   <g id="patch_5">
    <path d="M 37.146719 118.08 
L 204.546719 118.08 
" style="fill: none; stroke: #000000; stroke-width: 0.5; stroke-linejoin: miter; stroke-linecap: square"/>
   </g>
   <g id="patch_6">
    <path d="M 37.146719 7.2 
L 204.546719 7.2 
" style="fill: none; stroke: #000000; stroke-width: 0.5; stroke-linejoin: miter; stroke-linecap: square"/>
   </g>
   <g id="legend_1">
    <g id="patch_7">
     <path d="M 50.416719 73.319113 
L 101.610781 73.319113 
Q 103.010781 73.319113 103.010781 71.919112 
L 103.010781 13.2088 
Q 103.010781 11.8088 101.610781 11.8088 
L 50.416719 11.8088 
Q 49.016719 11.8088 49.016719 13.2088 
L 49.016719 71.919112 
Q 49.016719 73.319113 50.416719 73.319113 
z
" style="fill: #ffffff; opacity: 0.8; stroke: #cccccc; stroke-linejoin: miter"/>
    </g>
    <g id="line2d_20">
     <path d="M 51.816719 17.169269 
L 58.816719 17.169269 
L 65.816719 17.169269 
" style="fill: none; stroke-dasharray: 1.5,2.475; stroke-dashoffset: 0; stroke: #648fff; stroke-width: 1.5"/>
    </g>
    <g id="text_16">
     <!-- IP -->
     <g style="fill: #262626" transform="translate(71.416719 19.619269) scale(0.07 -0.07)">
      <defs>
       <path id="ArialMT-49" d="M 597 0 
L 597 4581 
L 1203 4581 
L 1203 0 
L 597 0 
z
" transform="scale(0.015625)"/>
       <path id="ArialMT-50" d="M 494 0 
L 494 4581 
L 2222 4581 
Q 2678 4581 2919 4538 
Q 3256 4481 3484 4323 
Q 3713 4166 3852 3881 
Q 3991 3597 3991 3256 
Q 3991 2672 3619 2267 
Q 3247 1863 2275 1863 
L 1100 1863 
L 1100 0 
L 494 0 
z
M 1100 2403 
L 2284 2403 
Q 2872 2403 3119 2622 
Q 3366 2841 3366 3238 
Q 3366 3525 3220 3729 
Q 3075 3934 2838 4000 
Q 2684 4041 2272 4041 
L 1100 4041 
L 1100 2403 
z
" transform="scale(0.015625)"/>
      </defs>
      <use xlink:href="#ArialMT-49"/>
      <use xlink:href="#ArialMT-50" x="27.783203"/>
     </g>
    </g>
    <g id="line2d_21">
     <path d="M 51.816719 27.070987 
L 58.816719 27.070987 
L 65.816719 27.070987 
" style="fill: none; stroke: #648fff; stroke-width: 1.5; stroke-linecap: round"/>
    </g>
    <g id="text_17">
     <!-- Isoprenol -->
     <g style="fill: #262626" transform="translate(71.416719 29.520987) scale(0.07 -0.07)">
      <defs>
       <path id="ArialMT-73" d="M 197 991 
L 753 1078 
Q 800 744 1014 566 
Q 1228 388 1613 388 
Q 2000 388 2187 545 
Q 2375 703 2375 916 
Q 2375 1106 2209 1216 
Q 2094 1291 1634 1406 
Q 1016 1563 777 1677 
Q 538 1791 414 1992 
Q 291 2194 291 2438 
Q 291 2659 392 2848 
Q 494 3038 669 3163 
Q 800 3259 1026 3326 
Q 1253 3394 1513 3394 
Q 1903 3394 2198 3281 
Q 2494 3169 2634 2976 
Q 2775 2784 2828 2463 
L 2278 2388 
Q 2241 2644 2061 2787 
Q 1881 2931 1553 2931 
Q 1166 2931 1000 2803 
Q 834 2675 834 2503 
Q 834 2394 903 2306 
Q 972 2216 1119 2156 
Q 1203 2125 1616 2013 
Q 2213 1853 2448 1751 
Q 2684 1650 2818 1456 
Q 2953 1263 2953 975 
Q 2953 694 2789 445 
Q 2625 197 2315 61 
Q 2006 -75 1616 -75 
Q 969 -75 630 194 
Q 291 463 197 991 
z
" transform="scale(0.015625)"/>
       <path id="ArialMT-6f" d="M 213 1659 
Q 213 2581 725 3025 
Q 1153 3394 1769 3394 
Q 2453 3394 2887 2945 
Q 3322 2497 3322 1706 
Q 3322 1066 3130 698 
Q 2938 331 2570 128 
Q 2203 -75 1769 -75 
Q 1072 -75 642 372 
Q 213 819 213 1659 
z
M 791 1659 
Q 791 1022 1069 705 
Q 1347 388 1769 388 
Q 2188 388 2466 706 
Q 2744 1025 2744 1678 
Q 2744 2294 2464 2611 
Q 2184 2928 1769 2928 
Q 1347 2928 1069 2612 
Q 791 2297 791 1659 
z
" transform="scale(0.015625)"/>
       <path id="ArialMT-70" d="M 422 -1272 
L 422 3319 
L 934 3319 
L 934 2888 
Q 1116 3141 1344 3267 
Q 1572 3394 1897 3394 
Q 2322 3394 2647 3175 
Q 2972 2956 3137 2557 
Q 3303 2159 3303 1684 
Q 3303 1175 3120 767 
Q 2938 359 2589 142 
Q 2241 -75 1856 -75 
Q 1575 -75 1351 44 
Q 1128 163 984 344 
L 984 -1272 
L 422 -1272 
z
M 931 1641 
Q 931 1000 1190 694 
Q 1450 388 1819 388 
Q 2194 388 2461 705 
Q 2728 1022 2728 1688 
Q 2728 2322 2467 2637 
Q 2206 2953 1844 2953 
Q 1484 2953 1207 2617 
Q 931 2281 931 1641 
z
" transform="scale(0.015625)"/>
       <path id="ArialMT-6c" d="M 409 0 
L 409 4581 
L 972 4581 
L 972 0 
L 409 0 
z
" transform="scale(0.015625)"/>
      </defs>
      <use xlink:href="#ArialMT-49"/>
      <use xlink:href="#ArialMT-73" x="27.783203"/>
      <use xlink:href="#ArialMT-6f" x="77.783203"/>
      <use xlink:href="#ArialMT-70" x="133.398438"/>
      <use xlink:href="#ArialMT-72" x="189.013672"/>
      <use xlink:href="#ArialMT-65" x="222.314453"/>
      <use xlink:href="#ArialMT-6e" x="277.929688"/>
      <use xlink:href="#ArialMT-6f" x="333.544922"/>
      <use xlink:href="#ArialMT-6c" x="389.160156"/>
     </g>
    </g>
    <g id="line2d_22">
     <path d="M 51.816719 36.972706 
L 58.816719 36.972706 
L 65.816719 36.972706 
" style="fill: none; stroke-dasharray: 5.55,2.4; stroke-dashoffset: 0; stroke: #648fff; stroke-width: 1.5"/>
    </g>
    <g id="text_18">
     <!-- IPP -->
     <g style="fill: #262626" transform="translate(71.416719 39.422706) scale(0.07 -0.07)">
      <use xlink:href="#ArialMT-49"/>
      <use xlink:href="#ArialMT-50" x="27.783203"/>
      <use xlink:href="#ArialMT-50" x="94.482422"/>
     </g>
    </g>
    <g id="line2d_23">
     <path d="M 51.816719 46.874425 
L 58.816719 46.874425 
L 65.816719 46.874425 
" style="fill: none; stroke-dasharray: 5.55,2.4; stroke-dashoffset: 0; stroke: #fe6100; stroke-width: 1.5"/>
    </g>
    <g id="text_19">
     <!-- DMAPP -->
     <g style="fill: #262626" transform="translate(71.416719 49.324425) scale(0.07 -0.07)">
      <defs>
       <path id="ArialMT-44" d="M 494 0 
L 494 4581 
L 2072 4581 
Q 2606 4581 2888 4516 
Q 3281 4425 3559 4188 
Q 3922 3881 4101 3404 
Q 4281 2928 4281 2316 
Q 4281 1794 4159 1391 
Q 4038 988 3847 723 
Q 3656 459 3429 307 
Q 3203 156 2883 78 
Q 2563 0 2147 0 
L 494 0 
z
M 1100 541 
L 2078 541 
Q 2531 541 2789 625 
Q 3047 709 3200 863 
Q 3416 1078 3536 1442 
Q 3656 1806 3656 2325 
Q 3656 3044 3420 3430 
Q 3184 3816 2847 3947 
Q 2603 4041 2063 4041 
L 1100 4041 
L 1100 541 
z
" transform="scale(0.015625)"/>
       <path id="ArialMT-4d" d="M 475 0 
L 475 4581 
L 1388 4581 
L 2472 1338 
Q 2622 884 2691 659 
Q 2769 909 2934 1394 
L 4031 4581 
L 4847 4581 
L 4847 0 
L 4263 0 
L 4263 3834 
L 2931 0 
L 2384 0 
L 1059 3900 
L 1059 0 
L 475 0 
z
" transform="scale(0.015625)"/>
       <path id="ArialMT-41" d="M -9 0 
L 1750 4581 
L 2403 4581 
L 4278 0 
L 3588 0 
L 3053 1388 
L 1138 1388 
L 634 0 
L -9 0 
z
M 1313 1881 
L 2866 1881 
L 2388 3150 
Q 2169 3728 2063 4100 
Q 1975 3659 1816 3225 
L 1313 1881 
z
" transform="scale(0.015625)"/>
      </defs>
      <use xlink:href="#ArialMT-44"/>
      <use xlink:href="#ArialMT-4d" x="72.216797"/>
      <use xlink:href="#ArialMT-41" x="155.517578"/>
      <use xlink:href="#ArialMT-50" x="222.216797"/>
      <use xlink:href="#ArialMT-50" x="288.916016"/>
     </g>
    </g>
    <g id="line2d_24">
     <path d="M 51.816719 56.776144 
L 58.816719 56.776144 
L 65.816719 56.776144 
" style="fill: none; stroke-dasharray: 1.5,2.475; stroke-dashoffset: 0; stroke: #fe6100; stroke-width: 1.5"/>
    </g>
    <g id="text_20">
     <!-- DMAP -->
     <g style="fill: #262626" transform="translate(71.416719 59.226144) scale(0.07 -0.07)">
      <use xlink:href="#ArialMT-44"/>
      <use xlink:href="#ArialMT-4d" x="72.216797"/>
      <use xlink:href="#ArialMT-41" x="155.517578"/>
      <use xlink:href="#ArialMT-50" x="222.216797"/>
     </g>
    </g>
    <g id="line2d_25">
     <path d="M 51.816719 66.677863 
L 58.816719 66.677863 
L 65.816719 66.677863 
" style="fill: none; stroke: #fe6100; stroke-width: 1.5; stroke-linecap: round"/>
    </g>
    <g id="text_21">
     <!-- Prenol -->
     <g style="fill: #262626" transform="translate(71.416719 69.127863) scale(0.07 -0.07)">
      <use xlink:href="#ArialMT-50"/>
      <use xlink:href="#ArialMT-72" x="66.699219"/>
      <use xlink:href="#ArialMT-65" x="100"/>
      <use xlink:href="#ArialMT-6e" x="155.615234"/>
      <use xlink:href="#ArialMT-6f" x="211.230469"/>
      <use xlink:href="#ArialMT-6c" x="266.845703"/>
     </g>
    </g>
   </g>
  </g>
 </g>
 <defs>
  <clipPath id="p2f60bacb0b">
   <rect x="37.146719" y="7.2" width="167.4" height="110.88"/>
  </clipPath>
 </defs>
</svg>
